<?xml version="1.0" standalone="no"?>
<!DOCTYPE svg PUBLIC "-//W3C//DTD SVG 1.1//EN" "http://www.w3.org/Graphics/SVG/1.1/DTD/svg11.dtd" >
<svg>
<metadata>
Created by FontForge 20090622 at Fri Apr  3 12:51:42 2020
 By deploy user
Generated by Fontographer 4.1
</metadata>
<defs>
<font id="AXtManalBLack" horiz-adv-x="0" >
  <font-face 
    font-family="AXtManalBLack"
    font-weight="400"
    font-stretch="normal"
    units-per-em="1000"
    panose-1="0 0 4 0 0 0 0 0 0 0"
    ascent="800"
    descent="-200"
    bbox="-165.094 -422 1113 905"
    underline-thickness="20"
    underline-position="-123"
    unicode-range="U+F020-U+F0FF"
  />
<missing-glyph horiz-adv-x="500" 
d="M63 0v600h375v-600h-375zM125 63h250v475h-250v-475z" />
    <glyph glyph-name=".notdef" horiz-adv-x="500" 
d="M63 0v600h375v-600h-375zM125 63h250v475h-250v-475z" />
    <glyph glyph-name=".null" 
 />
    <glyph glyph-name="nonmarkingreturn" horiz-adv-x="150" 
 />
    <glyph glyph-name="space" unicode="&#xf020;" horiz-adv-x="150" 
 />
    <glyph glyph-name="threequarters" horiz-adv-x="1000" 
 />
    <glyph glyph-name="exclam" unicode="&#xf021;" horiz-adv-x="269" 
d="M223 96l-78 -97l-99 68l72 95h6l22 -15q6 16 6 36q0 43 -22 92q-13 30 -41 73q-22 35 -23 42q19 33 50 102q41 -44 70 -98q33 -63 33 -113q0 -49 -40.5 -119t-40.5 -64q0 -3 5 -3t32 32q16 -11 48 -31z" />
    <glyph glyph-name="quotedbl" unicode="&#xf022;" horiz-adv-x="342" 
d="M213 534q-2 -8 -23 -24.5t-29 -16.5q-7 0 -31.5 16.5t-24.5 22.5q0 10 52 49q11 -1 56 -47zM282 458q-42 -62 -54 -62q-9 0 -70 41l-33 -41q-32 10 -74 43q26 34 51 60q51 -37 64 -38q14 14 44 40zM325 150q0 -91 -25 -150h-318v110l277 -1v3q-1 14 -7.5 39.5t-13.5 32.5
q-24 -28 -43.5 -38t-54.5 -10t-64 16q-34 20 -34 53q0 49 58 110.5t107 61.5q50 0 87 -91q31 -75 31 -136zM204 243q-31 43 -51 43q-11 0 -33 -25q30 -25 51 -25q17 0 33 7z" />
    <glyph glyph-name="numbersign" unicode="&#xf023;" horiz-adv-x="364" 
d="M293 474q-2 -8 -22.5 -24.5t-29.5 -16.5q-7 0 -31.5 16.5t-24.5 22.5q0 10 52 49q12 -2 56 -47zM362 398q-42 -62 -54 -62q-9 0 -70 41l-33 -41q-32 10 -74 43q26 34 51 60q50 -36 64 -38q14 14 44 40zM381 0h-400v110h96q1 15 16 50q33 45 87 87q64 49 108 49
q32 0 48 -35q13 -27 13 -63q0 -23 -12 -47l-26 -41h70v-110zM267 130q0 19 -14.5 37.5t-32.5 18.5q-14 0 -41 -13q-30 -14 -30 -26q0 -13 26 -26q23 -11 39 -11q53 0 53 20z" />
    <glyph glyph-name="dollar" unicode="&#xf024;" horiz-adv-x="1009" 
d="M620 513q0 -22 -14 -22q-4 0 -12 4q-3 0 -8 -4t-9 -4q-13 0 -13 19q0 14 8 19q-1 1 -1 -10q0 -5 8 -12q12 5 12 22q0 5 5 8q0 -13 7 -26q8 2 10 5q1 2 0 6q-1 6 -1 8l4 7q4 -10 4 -20zM881 224q0 -4 -4.5 -13t-8.5 -9q-15 0 -15 24q0 16 13 28q-6 -16 -6 -30q0 -6 8 -6
q5 0 13 6zM760 309l-6 2q-3 -4 -3 -8q0 13 7 -80q-8 2 -25 8l-16 123l25 37zM550 525q-4 -13 -25 -15q-65 -7 -145 -46q14 -22 14 -20q0 -4 -1.5 -11t-1.5 -10q-21 35 -21 33q0 3 1 8.5t1 7.5q18 16 66.5 34.5t72.5 18.5h39zM522 406q0 -7 -4.5 -21.5t-8.5 -17.5q1 14 1 24
q0 14 -8 32t-8 20t7 22q6 -4 13.5 -26.5t7.5 -32.5zM979 -35q-11 -17 -25 -29q-29 17 -29 23q0 1 23 29q10 -6 31 -23zM939 130q-27 -49 -62 -48l36 29q-7 5 -18 5q-8 0 -28 -8v7q0 12 12 22t25 9l1 2v4q2 103 -73 183q-68 72 -174 102l-4 -4l30 -93q-11 -40 -15 -46
q-13 -21 -43 -21q-21 0 -37 18q-6 8 -22 38q-30 -56 -72 -56q-61 0 -61 66q0 12 7 33.5t7 32.5q0 6 -3 12q-15 -11 -29 -86q-13 -66 -40 -66q-29 0 -41 49l-14 71q-23 -19 -71 -54v6q0 5 41 36t41 44q0 1 -6 7t-6 12t4 18.5t4 16.5q40 -28 40 -37q0 -15 -17 -15q-3 0 -6 2
q-13 -24 -13 -35q0 -28 7 -56q11 -39 32 -39q23 0 37 66q18 78 49 102q4 -1 8 -9t3 -12l-16 -80q0 -21 14.5 -36t34.5 -15q57 0 57 70q0 12 -4 36t-4 36q0 13 10 30q9 -31 20 -93q2 -79 48 -79q19 0 36 18l-42 127q1 0 19 31q111 -52 158 -86q86 -61 104 -137q14 -56 14 -81
q0 -17 -4 -31q8 -3 17 -7t9 -11zM997 57q-3 -21 -16 -38q-16 -19 -36 -19l-6 1q-4 5 -25 19q-18 -25 -39 -24l-11 1l-9 5q-7 -5 -12 -8l-2 -61q-3 -37 -18 -57l2 135q0 17 -13 150q-50 15 -70 11l-116 -22q-91 -17 -110 -14v32h11q15 -1 86.5 9.5t82.5 14.5v2
q-7 5 -33.5 16.5t-34.5 11.5q-4 0 -17 -8q-19 1 -59 17q11 24 12 25q7 9 27 9q35 0 112 -33.5t106 -33.5q-1 4 -1 10q0 13 -5.5 38t-5.5 38q0 11 15 41q25 -69 25 -68q0 -1 -5 -10.5t-5 -20.5q0 -5 1 -16t1 -16q9 -3 28 -2l-10 -20t-14 -15v-1v-4l11 -122q5 2 11 13t15 15
q-1 -8 -1 -14q0 -14 17 -14q20 0 32 31l9 6v-24q15 -7 26 -7q24 0 24 15l-19 56t-19 79q0 8 5 15.5l10 14.5q25 -37 25 -42q0 -3 -4.5 -11t-5.5 -11zM891 -67q0 -13 -12 -13q-14 0 -14 24q0 18 13 30q-5 -16 -5 -25q0 -8 5 -13l13 6v-9zM941 -80q0 -14 -23 -17
q-10 -17 -19 -17q-3 0 -7.5 2t-7.5 2q-5 0 -7 -4q-24 -39 -67 -52l-13 2q5 7 21 14q20 10 23.5 12.5t20.5 24.5q14 17 24 17q2 0 6.5 -1t6.5 -1q11 0 10 21l3 5q2 -1 8 -12q8 0 9 4q2 3 0 8q-2 7 -2 10l1 2q13 -9 13 -20zM386 357q0 -10 -13 -10t-13 23q0 21 12 29l-4 -17
v-18q1 -1 6 -1q-2 0 12 6v-12zM915 -170q-7 -20 -17 -20q-15 0 -15 26q0 24 15 34q-7 -23 -7 -30q0 -14 8 -14l11 6zM287 411q-5 -22 -13 -22q-14 0 -14 22q0 20 13 30q0 -5 -2.5 -14t-2.5 -13q0 -10 7 -11zM869 -201q0 -25 -27 -25q-15 0 -15 13q0 39 21 39q8 0 14.5 -9.5
t6.5 -17.5zM738 0q-91 -34 -180 -34l14.5 20t16.5 13q19 1 46 3q19 3 103 28v-30zM478 133h-31q2 4 0 33h31v-33zM818 -12l-19 -6q-18 0 -24 32l-6 -3v-74q34 -29 34 -39l-10 -37q-14 -55 -70 -91.5t-114 -36.5q-45 0 -77 44q-28 40 -28 88q0 49 24.5 95t65.5 75
q-2 4 -32 16q-22 10 -22 41q0 44 69 44q21 0 64.5 -5t65.5 -5q3 18 0 36h6q2 0 17 -6q0 -12 3 -34l28 -12q-5 -12 -18 -29l-76 -22q-42 -14 -70 -37l-3 -15l-14 11q-5 -1 -28 -17q-64 -46 -64 -120q0 -43 28 -78t69 -35q42 0 100 29q66 34 66 71q0 10 -7 15.5l-14 10.5
q-1 -35 -56 -56l-84 -25q-20 -12 -45 -25l-21 16q14 27 111 52q88 24 88 58q0 25 -4 75.5t-4 76.5q7 1 21 4v-24v-1q1 -1 4 -1q1 0 24 12q0 -4 -2.5 -11.5t-2.5 -11.5q0 -15 27 -11v-34zM542 0q-8 -18 -17 -29l-8 -5q-5 -14 -20 -42q0 -5 0 51q0 31 -5.5 92t-5.5 92
q0 13 -5 40.5t-5 40.5q0 11 24 22q5 -34 18 -74l-10 1q-2 -5 -2 -18q0 -68 11 -167q8 -5 25 -4zM231 375l-10 6q-6 -3 -8 -22q-2 -22 -4 -26q-2 1 -10 18q-5 11 -13 11q-3 0 -6 -1q-4 8 -4 13q0 13 7 13q8 0 24 -30q-1 -2 -1 13q0 29 16 29q5 0 9 -5v-19zM320 298
q-3 -21 -18.5 -35.5t-36.5 -14.5h-3q20 11 40 29q-9 4 -28 4q-9 0 -18 -8v12q4 7 12 19q5 1 15 1q30 0 37 -7zM742 -92q-13 2 -38 8l-6 -35q-9 -9 -15 -9q-12 0 -26 18t-14 32q0 4 1 7q-2 1 -5 1q-73 0 -106 -34l-1 11q-1 32 47 49q36 13 77 14q51 -18 86 -22v-40zM618 -118
q0 -19 -13 -19q-4 0 -9 3q-8 -12 -19 -12q-17 0 -17 22v9l6 3q2 -12 11 -18q12 4 12 9q0 3 -3.5 7.5t-3.5 7.5q2 6 5 10q8 -17 15 -24q8 2 8 6q-5 8 -5 13v11q13 -12 13 -28zM414 51q-3 -4 -21 -19l-23 29l20 18q-7 10 -18 31q5 4 17 12q6 0 25 -29q-5 -5 -20 -16zM236 305
q0 -5 -5 -14q-19 4 -23 4q-9 0 -23 -12q21 -87 21 -79q0 -6 -6 -16q-22 81 -22 86q0 31 36 36q-5 5 -11 5t-13 -4q4 18 17 18q6 0 17.5 -9t11.5 -15zM486 -30h-36q6 16 6 38q6 -2 30 -6v-32zM450 22q1 -9 -5 -39q-8 -39 -39 -60q-20 -13 -66 -26q-50 -14 -70 -25q4 15 18 39
q11 9 54 19q48 12 66 21q32 17 28 44l-30 230q-2 14 21 33l17 -75h-8zM450 -97q-5 -11 -10 -11q-12 0 -12 23q0 10 8 27h8q0 -4 -2 -11t-2 -11l1 -3q9 -9 9 -14zM532 -238q-24 -29 -55 -29q-20 0 -34.5 16.5t-14.5 36.5q0 9 6 28q8 25 8 30q-100 -70 -150 -70q-46 0 -46 63
q0 50 37 96t37 62q0 21 -5 27t-24 6q-23 0 -70 -26t-63 -46q-8 -9 -17.5 -36.5t-9.5 -39.5q0 -36 28 -36q16 0 45 20q36 24 44 28q-1 -21 -7 -31.5t-37 -29.5t-42 -19q-19 0 -32 27q-11 22 -11 44q0 13 10.5 36.5t10.5 29.5v3q-21 -16 -43 -16q-20 0 -34 18.5t-14 39.5
q0 5 12 43q-26 14 -26 50q0 27 27 64l43 57q1 15 5 40q6 22 22 51q19 34 35 37v-7q0 3 -22 -30.5t-22 -58.5v-6l10 -8l32 24v-9q0 -20 -16.5 -35t-35.5 -14q-64 -64 -64 -104q0 -10 8 -19t17 -9q21 0 96 41q72 39 106 35q0 -2 0 21q0 66 57 95q16 -52 42 -69q9 -3 17 -7
q14 -4 14 -8v-30h-13q-21 0 -42 30l-28 48q-33 -16 -33 -38q0 -25 27 -37l47 -21q-5 -26 -11 -38q-18 8 -36 15q-21 7 -39 7q-37 0 -73 -16l-65 -33q-12 -6 -61 -20q-16 -4 -16 -42q0 -25 28 -25q18 0 97 46t145 50q49 -42 91 -48v-36h-13q-10 0 -38 14q0 -1 -4 -19
q-2 -13 -10 -13q-21 8 -26 8q-18 0 -47.5 -50.5t-29.5 -72.5q0 -16 10.5 -28.5t26.5 -12.5q35 0 105 44l102 66v-7q0 -6 -2 -17t-3 -15q-57 -32 -57 -88q0 -27 26 -27q18 0 49 22q7 -5 19 -22zM171 141q0 -9 -9 -19t-19 -10q-18 0 -18 22q0 34 24 34q9 0 15.5 -9t6.5 -18z
M496 -197q-8 -15 -19 -15h-15v16q7 7 7 15l-1 3l-12 -4q3 4 20 14q2 -1 2 -6q0 -3 -4.5 -12.5t-5.5 -12.5q2 -5 7 -5q-2 0 21 7zM380 -131q-5 -5 -19 -29q-10 8 -35 20q6 14 19 30q10 -4 35 -21zM215 59q0 -6 -44 -30l-54 -29q1 17 41 39l57 29v-9zM281 4l-4 -13l-58 -27
q-48 -23 -48 -30q0 -4 15 -17l-7 -13q-18 8 -18 24q0 32 120 76zM410 -248q-7 -9 -12 -9q-16 0 -16 23q0 17 14 27q0 -3 -3 -12.5t-3 -13.5q0 -9 8 -9l12 5v-11zM242 -74q0 -10 -7.5 -18t-16.5 -8q-18 0 -18 20q0 10 6 20t16 10q20 0 20 -24zM232 -211q0 -17 -14 -17t-14 21
q0 22 13 30q-5 -22 -5 -25q0 -7 5 -13q8 4 12 9q3 0 3 -5zM102 -100q2 -3 2 -5q0 -17 -13 -17q-14 0 -14 22q0 19 14 30q-6 -23 -6 -27q0 -10 7 -11q7 4 10 8zM704 91q-46 11 -77 11h-23q-46 0 -54 -13l36 -18q21 -13 27 -27q17 15 44 27q44 19 47 20zM855 -201q-5 9 -12 9
q-12 0 -12 -10q0 -5 3.5 -7.5t8.5 -2.5q9 6 12 11zM664 -76zM346 -3q-5 14 -14 19v-7q0 -4 14 -12zM155 139q-5 11 -14 11q-5 0 -12 -6v-7q3 -4 12 -7q11 4 14 9zM230 -77q-6 11 -13 11q-6 0 -11 -11q3 -7 12 -7q8 0 12 7z" />
    <glyph glyph-name="percent" unicode="&#xf025;" horiz-adv-x="439" 
d="M391 141q0 -9 -49 -91q-55 54 -95 65l50 93h7q5 0 6 -3q21 -8 48 -26q33 -23 33 -38zM306 440l-87 -285l-20 -72q-12 -43 -25 -69q-10 -19 -57 -42q18 68 52 177q43 135 55 177q14 49 26 69q19 33 56 45zM177 310l-51 -92q-47 55 -93 67l46 97q75 -23 98 -72z" />
    <glyph glyph-name="ampersand" unicode="&#xf026;" horiz-adv-x="683" 
d="M623 474q-2 -8 -23 -24.5t-29 -16.5q-7 0 -31.5 16.5t-24.5 22.5q0 10 52 49q11 -1 56 -47zM692 398q-42 -62 -54 -62q-9 0 -70 41l-33 -41q-32 10 -74 43q26 34 51 60q51 -37 64 -38q14 14 44 40zM700 0h-608q-37 0 -66 41q-27 38 -27 77q0 29 14 78q16 54 33 70l3 -11
q0 -10 -6 -31.5t-6 -32.5q0 -26 15 -52q18 -29 42 -29h306q0 10 4 30q21 45 90 99q73 57 119 57q29 0 46 -35q13 -29 13 -62q0 -29 -38 -89q2 1 20 1l46 -1v-110zM590 127q-2 21 -14 38q-13 21 -32 21q-12 0 -43 -14.5t-31 -24.5q0 -15 30 -26q24 -9 42 -9q33 0 48 15z" />
    <glyph glyph-name="quotesingle" unicode="&#xf027;" horiz-adv-x="198" 
d="M128 674q0 -28 -9 -81q-12 -63 -25 -63q-14 0 -23 61q-7 46 -7 78q0 43 33 43q31 0 31 -38z" />
    <glyph glyph-name="parenleft" unicode="&#xf028;" horiz-adv-x="353" 
d="M273 -96q-9 -6 -16 -6q-36 0 -82 31q-62 44 -97 121q-31 71 -31 152q0 197 140 283q42 26 72 26q7 0 14 -6v-14q-8 -6 -25 -12q-74 -25 -98 -116q-13 -51 -13 -161q0 -111 16 -167q28 -94 109 -112l11 -8v-11z" />
    <glyph glyph-name="parenright" unicode="&#xf029;" horiz-adv-x="397" 
d="M302 195q0 -86 -35 -161q-39 -81 -108 -122q-40 -23 -69 -23q-17 0 -17 11q0 4 9 12q29 11 39 16q20 10 33 25q58 68 58 210v75q0 65 -17 120q-21 72 -65 97l-33 14q-24 11 -24 20q0 13 14 13q36 0 84 -32q61 -40 97 -121q34 -75 34 -154z" />
    <glyph glyph-name="asterisk" unicode="&#xf02a;" horiz-adv-x="515" 
d="M401 104l-37 -37l-104 100l-104 -100q-13 12 -37 37l102 102l-102 103q11 13 35 39l104 -102l104 102q13 -11 39 -37l-104 -105z" />
    <glyph glyph-name="plus" unicode="&#xf02b;" horiz-adv-x="524" 
d="M383 112h-114v-112h-52v111h-116v55h116v114h51v-113h115v-55z" />
    <glyph glyph-name="comma" unicode="&#xf02c;" horiz-adv-x="198" 
d="M153 67q0 -24 -15.5 -45.5t-37.5 -21.5q-28 0 -46.5 20t-18.5 48t40 102q38 70 62 94q-3 -20 -29.5 -74t-26.5 -67q0 -18 27 -34q24 -15 45 -15v-7z" />
    <glyph glyph-name="hyphen" unicode="&#xf02d;" horiz-adv-x="365" 
d="M316 159q0 -19 -19 -65q-8 -20 -13 -20q-1 0 -2 2l-201 -2q-10 0 -19 8q19 86 39 86l212 -2q3 -2 3 -7z" />
    <glyph glyph-name="period" unicode="&#xf02e;" horiz-adv-x="295" 
d="M235 55q0 -8 -38 -31.5t-50 -23.5q-9 0 -43 21.5t-43 31.5q6 11 41.5 39t44.5 28q5 0 46.5 -30.5t41.5 -34.5z" />
    <glyph glyph-name="slash" unicode="&#xf02f;" horiz-adv-x="439" 
d="M317 467q-144 -495 -167 -526q-9 -13 -63 -41l129 420q23 71 32 89q24 46 69 58z" />
    <glyph glyph-name="zero" unicode="&#xf030;" horiz-adv-x="430" 
d="M286 253l-37 -128l-105 63l37 130z" />
    <glyph glyph-name="one" unicode="&#xf031;" horiz-adv-x="430" 
d="M292 119q0 -121 -27 -121q-13 0 -30 88l-22 111q-24 73 -75 158v7q0 14 16.5 62.5t25.5 48.5q10 0 24 -25q88 -147 88 -329z" />
    <glyph glyph-name="two" unicode="&#xf032;" horiz-adv-x="430" 
d="M345 430q0 -144 -95 -160l-3 -2q28 -86 28 -184q0 -84 -25 -84q-11 4 -14 8q-8 9 -12 34l-6 37q-32 145 -90 246q-2 3 -24 34q-19 28 -19 31q0 7 18.5 39t26.5 40q11 -1 37 -29q34 -37 36 -39h19q42 -1 65 18q8 7 25 34q11 18 27 16q6 -9 6 -39z" />
    <glyph glyph-name="three" unicode="&#xf033;" horiz-adv-x="430" 
d="M395 422q0 -44 -20 -86q-25 -51 -63 -51q-17 0 -42 11t-28 11l-14 -12.5t-49 -29.5q22 -93 22 -175q0 -92 -28 -92q-19 0 -27 51q-3 34 -6.5 68.5t-30.5 105.5q-25 67 -47 104q-8 11 -15 23q-12 18 -12 21q0 6 23.5 41.5t29.5 38.5l43 -45q33 -31 48 -31q21 0 51 46
t38 46q6 0 11 -3l5 -10q5 -31 8 -38q9 -17 36 -17q13 0 25 27t25 27q17 0 17 -31z" />
    <glyph glyph-name="four" unicode="&#xf034;" horiz-adv-x="430" 
d="M323 100q0 -13 -32 -98h-8q-48 0 -104 23q-68 28 -68 68q0 27 28 69q3 5 46 61q-3 5 -34 24.5t-44 41.5v14q-3 50 54.5 115.5t107.5 64.5l-14 -92q-40 -7 -60 -24q-4 -1 -4 -6q0 -9 41 -28q45 -21 49 -27t4 -12q0 -32 -42 -74q-45 -46 -50 -68q24 -16 62 -28l66 -18
q2 -1 2 -6z" />
    <glyph glyph-name="five" unicode="&#xf035;" horiz-adv-x="430" 
d="M185 70q-102 0 -102 103q0 61 42 147q49 99 102 99q36 0 79 -59q42 -55 42 -92q0 -95 -33 -142q-39 -56 -130 -56zM291 205q-55 101 -105 102q-13 -12 -25 -39t-12 -44q0 -44 67 -44q53 0 75 25z" />
    <glyph glyph-name="six" unicode="&#xf036;" horiz-adv-x="430" 
d="M359 100q0 -14 -12 -55q-14 -45 -23 -45q-26 0 -56 74q-27 66 -27 98v93q0 9 4 32q-48 -4 -65 -4q-109 0 -109 71q0 19 18 81q72 -38 123 -38q16 0 45 7t44 7q2 -5 2 -12q0 -18 -7 -55t-7 -56q0 -108 69 -190q1 -3 1 -8z" />
    <glyph glyph-name="seven" unicode="&#xf037;" horiz-adv-x="430" 
d="M389 377l-1 -16q-88 -128 -134 -292q-20 -69 -34 -69q-13 0 -37 70l-29 89q-26 68 -70 130q-1 2 -24 28q-19 24 -19 26q0 11 18 50.5t27 47.5q32 -12 82 -124l62 -151l56 150q34 87 84 135h7q14 -42 12 -74z" />
    <glyph glyph-name="eight" unicode="&#xf038;" horiz-adv-x="430" 
d="M386 103q0 -11 -18 -55t-25 -44q-36 0 -140 271l-3 -2l-57 -153q-46 -107 -85 -130q-9 13 -12 49l-2 53q47 44 84 133q14 35 50 153q20 63 35 63q14 0 38 -70l31.5 -90t44.5 -91q2 -4 32 -46q27 -39 27 -41z" />
    <glyph glyph-name="nine" unicode="&#xf039;" horiz-adv-x="430" 
d="M353 93q0 -17 -10.5 -53.5t-19.5 -53.5h-7q-35 33 -56 100q-2 4 -29 114q-154 -2 -154 88q0 49 41 118q45 77 90 77q44 0 65 -64q13 -39 22 -133q9 -90 19 -114q2 -6 20.5 -41.5t18.5 -37.5zM223 311q-6 19 -11 37q-11 27 -24 27q-20 0 -33 -38q40 -27 68 -26z" />
    <glyph glyph-name="colon" unicode="&#xf03a;" horiz-adv-x="365" 
d="M236 63q0 -10 -47 -73l-81 53q20 30 58 92q-13 10 -56 34l46 77q49 -15 77 -46q3 -1 3 -7q0 -23 -56 -82q0 -1 11 -6q22 -10 42 -35q3 -2 3 -7z" />
    <glyph glyph-name="semicolon" unicode="&#xf03b;" horiz-adv-x="250" 
d="M174 205q0 -18 -13 -36.5t-31 -18.5q-27 0 -43.5 18.5t-16.5 44.5q0 29 32 95q35 70 60 77v-12q-50 -101 -50 -115q0 -15 24 -29q20 -11 38 -13v-11zM184 65q0 -9 -16.5 -33t-26.5 -32l-73 47q23 31 47 71q12 -4 40.5 -24t28.5 -29z" />
    <glyph glyph-name="less" unicode="&#xf03c;" horiz-adv-x="609" 
d="M473 524q-2 -8 -23 -24.5t-29 -16.5q-7 0 -31.5 16.5t-24.5 22.5q0 10 52 49q11 -1 56 -47zM542 448q-42 -62 -54 -62q-9 0 -70 41l-33 -41q-32 10 -74 43q26 34 51 60q51 -37 64 -38q14 14 44 40zM588 143l-22 -143h-451q-49 0 -82.5 37t-33.5 85q0 31 14 83
q17 60 35 73h9q2 -4 2 -10q0 -12 -6 -36.5t-6 -36.5q0 -34 23.5 -59.5t58.5 -25.5h392q1 1 1 4q0 12 -6 33q-7 25 -15 29q-32 -48 -92 -48q-35 0 -63 17q-34 19 -34 51q0 48 57 110.5t104 62.5q45 0 85 -92q38 -85 30 -134zM472 235q-7 12 -22 27q-18 16 -29 16
q-17 0 -33 -25q26 -25 48 -25q-3 0 36 7z" />
    <glyph glyph-name="equal" unicode="&#xf03d;" horiz-adv-x="457" 
d="M364 177h-254v36h254v-36zM364 61h-254v36h254v-36z" />
    <glyph glyph-name="greater" unicode="&#xf03e;" horiz-adv-x="362" 
d="M89 -167q2 8 23 25t29 17q7 0 31.5 -17t24.5 -22q0 -11 -52 -50q-10 2 -56 47zM21 -91q42 62 53 62q10 0 70 -40l34 40q32 -10 74 -43q-26 -34 -51 -59q-52 36 -65 38q-14 -15 -44 -40zM326 158q0 -38 -35 -158h-312v110h267q2 1 2 6q0 21 -22 58q-19 32 -39 51l59 103
q31 -30 55 -78q25 -52 25 -92z" />
    <glyph glyph-name="question" unicode="&#xf03f;" horiz-adv-x="342" 
d="M272 382q0 -17 -8.5 -51.5t-16.5 -49.5q-8 38 -8 33q0 20 -56 52q-52 30 -75 30q-9 0 -18 -17t-9 -27q0 -16 43 -34q71 -30 78 -34q42 -24 42 -55q0 -26 -24 -70l-37 -69q14 11 36 38l47 -33l-75 -95l-98 67l71 96q4 -2 29 -21q13 8 13 22q0 24 -47 40l-87 26
q-47 18 -47 47q0 42 30 122q33 91 66 91q29 0 88 -39q63 -41 63 -69z" />
    <glyph glyph-name="at" unicode="&#xf040;" horiz-adv-x="544" 
d="M493 191l-105 -95l-97 97l97 100zM357 322l-95 -97l-99 97l97 105zM231 195l-99 -99l-103 97l103 100zM359 67l-97 -107l-99 107l97 97z" />
    <glyph glyph-name="A" unicode="&#xf041;" horiz-adv-x="411" 
d="M347 87q-26 -41 -59 -87q-138 -4 -241 -97v7q-1 25 30 57q25 25 55 41q-29 8 -58 15q-36 12 -36 40q0 66 58 121.5t124 55.5q23 0 43 -17t20 -39q0 -5 -43 -70l-34 23q-21 13 -38 13q-19 0 -52 -25q35 -38 231 -38z" />
    <glyph glyph-name="B" unicode="&#xf042;" 
d="M222 523q0 -16 -41.5 -38.5t-60.5 -22.5q-33 0 -73 20q-17 -27 -30 -40h-9v7q0 3 41 73q45 -24 79 -24q20 0 85 32h9v-7z" />
    <glyph glyph-name="C" unicode="&#xf043;" 
d="M171 535q-5 -12 -21 -31q-41 1 -109 -40q1 9 16 22l24 18l-26 8q-18 7 -18 13q0 27 22.5 51t49.5 24q9 0 19.5 -5.5t10.5 -14.5q0 1 -19 -26q-30 16 -28 16q-5 0 -27 -13q10 -22 106 -22z" />
    <glyph glyph-name="D" unicode="&#xf044;" 
d="M243 433q-6 -13 -25 -39h-4q-51 1 -131 -51q0 13 19 28l31 21l-34 10q-24 8 -24 17q0 34 29.5 65.5t62.5 31.5q12 0 24 -7.5t12 -17.5l-23 -35q-33 22 -36 22q-11 0 -37 -18q12 -20 65 -25z" />
    <glyph glyph-name="E" unicode="&#xf045;" 
d="M203 -80q-5 -10 -22 -31q-48 0 -109 -42q4 12 16.5 22t24.5 18q-16 3 -44 18q-1 29 21 54.5t51 25.5q7 0 18 -5q10 -11 10 -15t-7 -14q-9 -13 -10 -14l-29 18q-10 0 -28 -16q13 -16 52 -19h56z" />
    <glyph glyph-name="F" unicode="&#xf046;" horiz-adv-x="313" 
d="M181 390q-6 -16 -26 -39q-65 -1 -136 -53q3 16 20 30l30 22q-17 5 -33 9q-23 7 -23 19q0 34 28.5 64.5t62.5 30.5q12 0 23.5 -7t11.5 -17q0 -3 -9 -18q-11 -18 -12 -18q-15 10 -37 22q-23 -9 -36 -18q16 -20 63 -25q17 -2 73 -2zM275 150q0 -31 -7 -75q-7 -38 -13 -75
h-272v110h222q-9 28 -62 114l55 96l4 -1q37 -50 51 -79q22 -44 22 -90z" />
    <glyph glyph-name="G" unicode="&#xf047;" horiz-adv-x="231" 
d="M161 162q0 -102 -58 -170l-45 322q19 55 74 131q29 -195 29 -283z" />
    <glyph glyph-name="H" unicode="&#xf048;" horiz-adv-x="309" 
d="M270 151q0 -151 -30 -151h-250v110h205q1 0 1 3q0 21 -22 59t-40 53l59 103q35 -29 56 -79t21 -98zM188 -127q0 -16 -78 -60q-9 1 -42.5 28t-33.5 33t34.5 39t40.5 33t42.5 -33t36.5 -40z" />
    <glyph glyph-name="I" unicode="&#xf049;" horiz-adv-x="360" 
d="M314 418q-25 -46 -63 -70l-87 45l-48 -43q-44 14 -85 47q21 26 63 68q56 -44 76 -44q5 0 28 19l28 25zM312 152q0 -59 -51.5 -110t-111.5 -51q-49 0 -69 7q-37 11 -37 50q0 47 56 132q41 63 91 118q122 -67 122 -146zM231 102q-10 43 -85 94l-24 -34q-17 -24 -17 -36
q0 -34 51 -34q33 0 75 10z" />
    <glyph glyph-name="J" unicode="&#xf04a;" horiz-adv-x="344" 
d="M286 434q-23 -37 -63 -70l-86 45l-44 -42q-35 10 -89 46l63 68q59 -44 78 -44l53 44zM276 156q0 -53 -34 -156h-256v110h214q-11 59 -62 115l59 103q79 -79 79 -172z" />
    <glyph glyph-name="K" unicode="&#xf04b;" horiz-adv-x="362" 
d="M163 444q-2 -8 -23 -24.5t-29 -16.5q-7 0 -31.5 16.5t-24.5 22.5q0 10 52 49q11 -1 56 -47zM232 368q-42 -62 -54 -62q-9 0 -70 41l-33 -41q-32 10 -74 43q26 34 51 60q51 -37 64 -38q14 14 44 40zM326 158q0 -38 -35 -158h-312v110h267q2 1 2 6q0 21 -22 58
q-19 32 -39 51l59 103q31 -30 55 -78q25 -52 25 -92z" />
    <glyph glyph-name="L" unicode="&#xf04c;" horiz-adv-x="582" 
d="M544 148l-67 -96q-144 10 -157 10q-36 0 -95 -31t-77 -31h-169v110h173q61 0 89 17l-59 31q-41 20 -61 20q-41 0 -78 -26v8q37 56 57 77q40 43 80 43q50 0 127 -41q98 -52 124 -60q37 -13 113 -31zM339 -99q-2 -10 -34 -45.5t-40 -35.5t-52 26t-44 32q0 7 32.5 38.5
t43.5 37.5z" />
    <glyph glyph-name="M" unicode="&#xf04d;" horiz-adv-x="598" 
d="M550 148l-67 -96q-142 10 -151 10q-40 0 -97.5 -31t-80.5 -31h-169v110h178q33 0 82 16l-1 3q-91 49 -121 49q-22 0 -39.5 -8t-34.5 -18q70 128 134 128q50 0 128 -41q100 -52 126 -60q37 -12 113 -31z" />
    <glyph glyph-name="N" unicode="&#xf04e;" horiz-adv-x="576" 
d="M289 397q0 -8 -32.5 -33t-41.5 -25q-7 0 -39.5 25t-32.5 32t31.5 37t39.5 32q75 -56 75 -68zM548 148l-67 -96q-152 11 -159 11q-34 0 -92 -31.5t-76 -31.5h-171v110h170q66 0 94 17l-67 33t-70 16q-22 0 -35 -8q-21 -13 -28 -15q44 69 57 83q38 44 85 44q35 0 162 -61
q132 -65 197 -71z" />
    <glyph glyph-name="O" unicode="&#xf04f;" horiz-adv-x="362" 
d="M315 115q0 -115 -33 -115h-241l10 110h195q1 2 1 4q0 27 -44.5 69t-73.5 46l35 115q151 -68 151 -229z" />
    <glyph glyph-name="P" unicode="&#xf050;" horiz-adv-x="355" 
d="M169 425q0 -10 -62 -58q-9 1 -38.5 22.5t-30.5 29.5q46 64 57 64q5 0 39.5 -27.5t34.5 -30.5zM321 114q0 -33 -6 -66q-9 -48 -27 -48h-241l10 110h194q1 1 2 3q0 29 -43.5 69t-74.5 47l34 115q71 -29 111.5 -91t40.5 -139z" />
    <glyph glyph-name="Q" unicode="&#xf051;" horiz-adv-x="287" 
d="M276 84q0 -70 -41 -151q-47 -95 -109 -95q-30 0 -111 31q-86 34 -86 56q0 5 3 11h12q66 -30 95 -30q40 0 111.5 60t71.5 97q0 20 -86 107q11 35 40 102q52 -47 73 -83q27 -46 27 -105z" />
    <glyph glyph-name="R" unicode="&#xf052;" horiz-adv-x="287" 
d="M230 398q0 -16 -71 -55q-9 1 -39.5 24.5t-30.5 30.5q0 6 31.5 35.5t37.5 29.5q4 0 38 -30.5t34 -34.5zM276 84q0 -70 -41 -151q-47 -95 -109 -95q-30 0 -111 31q-86 34 -86 56q0 5 3 11h12q66 -30 95 -30q40 0 111.5 60t71.5 97q0 20 -86 107q11 35 40 102q52 -47 73 -83
q27 -46 27 -105z" />
    <glyph glyph-name="S" unicode="&#xf053;" horiz-adv-x="308" 
d="M277 134q0 -33 -13 -69l-25 -65h-152q-3 7 -11 16l-16 -16h-83v110h95q0 14 8 42q40 76 77 88v-7q0 -13 -15 -57t-15 -62q0 -2 4 -4h71q3 3 3 6q0 6 -2 17.5t-2 17.5q0 18 31 56q26 33 45 47v-120z" />
    <glyph glyph-name="T" unicode="&#xf054;" horiz-adv-x="322" 
d="M150 442q-6 -9 -30 -29t-31 -20q-5 0 -31.5 21t-26.5 26t26 30t31 25q8 0 62 -53zM236 360q-6 -12 -29 -38q-26 -30 -33 -30q-6 0 -83 44l-47 -42q-27 1 -85 45q5 10 30.5 37.5t32.5 28.5q61 -42 74 -42q5 0 26 19q14 12 27 25zM277 134q0 -33 -13 -69l-25 -65h-152
q-3 7 -11 16l-16 -16h-83v110h95q0 14 8 42q40 76 77 88v-7q0 -13 -15 -57t-15 -62q0 -2 4 -4h71q3 3 3 6q0 6 -2 17.5t-2 17.5q0 18 31 56q26 33 45 47v-120z" />
    <glyph glyph-name="U" unicode="&#xf055;" horiz-adv-x="429" 
d="M425 149q0 -13 -57 -149h-398v110h40q30 34 145.5 89t159.5 55q37 0 73.5 -34.5t36.5 -70.5zM330 113q-12 25 -39 40t-56 15q-25 0 -70 -21l-67 -34h232z" />
    <glyph glyph-name="V" unicode="&#xf056;" horiz-adv-x="448" 
d="M281 406q-5 -10 -36.5 -43.5t-39.5 -34.5q-30 12 -88 55q25 26 78 74zM425 149q0 -22 -56 -149h-398v110h40q108 69 147 90q101 54 158 54q37 0 73 -34.5t36 -70.5zM331 113q-31 55 -95 55q-36 0 -137 -55h232z" />
    <glyph glyph-name="W" unicode="&#xf057;" horiz-adv-x="547" 
d="M529 148l-38 -148h-508v110h60q32 0 32 24q0 22 -12 116t-17 109q-2 5 -12 14q-8 6 -8 20q0 18 24 52q21 29 40 44q15 -62 111 -103l-26 -52q-17 -33 -39 -36l-3 -3q0 -8 2 -23t2 -22q0 -22 -21 -102q40 27 140 74q111 50 143 50q34 0 78.5 -44.5t51.5 -79.5zM433 111
q-8 22 -37.5 45t-53.5 23q-78 0 -179 -68h270z" />
    <glyph glyph-name="X" unicode="&#xf058;" horiz-adv-x="553" 
d="M431 387q0 -19 -86 -69q-9 2 -47 32t-38 37t38 43.5t46 36.5q5 0 46 -37.5t41 -42.5zM496 0h-516v110h60q40 0 40 26q0 92 -25 207q-2 10 -12.5 25.5t-10.5 24.5q0 32 63 96q14 -62 111 -103l-25 -52q-17 -33 -39 -36l-3 -3q3 -22 3 -44q0 -55 -20 -96v-5
q228 122 284 122q27 0 78 -46.5t51 -72.5q0 -5 -39 -153zM439 111q-13 27 -42 47t-58 20q-64 0 -171 -67h271z" />
    <glyph glyph-name="Y" unicode="&#xf059;" horiz-adv-x="475" 
d="M465 112l-65 -112h-412v110h74q0 17 5 51q14 44 82.5 96.5t113.5 52.5q54 0 96 -48q36 -42 49 -100q-66 36 -70 38q-30 12 -80 12q-72 0 -108 -18l-1 1q-1 0 -1 -4q0 -7 44.5 -43t53.5 -36h219z" />
    <glyph glyph-name="Z" unicode="&#xf05a;" horiz-adv-x="483" 
d="M286 413q-1 -17 -75 -59q-9 2 -41 27t-32 32q0 9 72 68q11 -2 76 -68zM463 112l-65 -112h-412v110h74q-1 21 6 58q25 47 83 93q64 49 112 49q50 0 97.5 -49t45.5 -99q-57 50 -149 50q-86 0 -111 -21q45 -49 97 -79h222z" />
    <glyph glyph-name="bracketleft" unicode="&#xf05b;" horiz-adv-x="1000" 
 />
    <glyph glyph-name="backslash" unicode="&#xf05c;" horiz-adv-x="1000" 
 />
    <glyph glyph-name="bracketright" unicode="&#xf05d;" horiz-adv-x="1000" 
 />
    <glyph glyph-name="asciicircum" unicode="&#xf05e;" horiz-adv-x="289" 
d="M232 115q0 -66 -52 -127q-49 -57 -115 -80q1 12 10 33l33 25q58 44 58 106q0 27 -18 59l53 79q31 -33 31 -95z" />
    <glyph glyph-name="underscore" unicode="&#xf05f;" horiz-adv-x="1141" 
d="M932 416q0 -8 -56 -39l-68 -36v6q12 23 56 45l68 33v-9zM1107 241q0 -12 -79 -46l-98 -42q7 26 78 57l99 40v-9zM612 479q-1 -8 -7 -21q-20 -16 -89 -43q-62 -25 -90 -55q5 -10 20 -18q-1 -7 -6 -23q-28 9 -28 34q0 24 25 39q69 44 175 87zM576 347q0 -29 -20 -29
q-2 0 -7 2.5t-8 2.5q-4 0 -12 -5.5t-12 -5.5q-18 0 -18 27q0 17 9 24q-1 -30 13 -30q13 0 13 31l7 11l4 -22q4 -14 12 -14q9 0 9 23q0 11 5 15q5 -24 5 -30zM1113 32q-4 -25 -14 -33q-17 -15 -68 -28q-47 -11 -75 -11q-76 0 -97 56q-9 -16 -19 -32t-28 -16q-17 0 -35 16
t-19 16q-78 -48 -244 -48q-80 0 -115 15q-52 22 -70 87l-2 4q-23 -38 -64 -38q-23 0 -44 15q-1 41 103 87q-3 3 -3 7q0 5 18 32q6 -45 13 -90q6 -38 25 -53q24 -19 87 -24q42 -4 80 -4q163 0 213 37q4 10 18 29q2 -3 2 -21q0 -10 17 -21.5t28 -11.5q10 0 22 13t12 22l-8 107
l-4 3q-6 -3 -53 -38h-10q4 15 34 42.5t30 30.5q0 14 -3 40t-3 40q0 15 6 26.5l12 23.5l6 -109l4 -3q112 102 112 191q0 49 -26.5 78t-75.5 29q-25 0 -64 -20q-44 -23 -44 -45q0 -5 10.5 -17t15.5 -16q-20 -39 -20 -38l16 -140q2 -16 -7 -46q-10 -35 -23 -35q-16 0 -62 30
q-3 0 -13 -13t-26 -13q-14 0 -33 14q-12 -20 -51 -20q-35 0 -44 18q-51 -24 -96 -24q-67 0 -92 55q-8 19 -23 114l-24 -89q-16 -47 -40 -70q-32 -28 -90 -28l-37 3l53 21t46 27q40 33 40 40q0 16 -33 55q-29 35 -48 49l-13 -12q-12 1 -30.5 21.5t-18.5 33.5q0 44 11 44
q21 0 66 -48q40 -42 55 -69q7 -20 22 -58q27 61 27 184q0 3 8.5 14.5t9.5 12.5l12 -110q9 -64 27 -108q9 -20 39 -34q27 -12 52 -12q48 0 76 27l28 28q1 -3 1 -7q0 -7 -3.5 -19.5t-3.5 -18.5q15 -8 23 -8q19 0 43 12l12 29t16 22q3 -6 3 -11q0 -11 -8 -32q24 -10 31 -10
q14 0 11 26q2 4 18 25v-5q0 -3 1 -22q42 -22 51 -22q22 0 19 21l-32 201q49 127 144 127q108 0 108 -113q0 -78 -30 -145q-34 -76 -95 -112q4 -49 9 -98q12 -66 54 -66l20 1q-13 15 -13 33q0 31 23 59t53 28q46 0 61 -33v-7q-18 6 -41 6q-20 0 -43 -7q-30 -9 -30 -25
q0 -12 23 -32.5t35 -20.5q26 0 96 32zM706 81q0 -12 -32 -12q-3 0 -12 -6.5t-13 -6.5t-26 15q-49 -29 -90 -29q-4 0 -13 1t-14 1l-3 -1v11q22 0 63 5q9 2 30.5 15t30.5 13q3 0 13.5 -6t13.5 -6q8 0 13 11.5t11 12.5q0 -6 1 -12t6 -6q9 0 14 22h7v-22zM815 -98q-7 -8 -20 -25
l-39 26q-7 -4 -22 -26q-15 6 -43 27q2 6 22 31q23 -14 39 -28q5 7 22 26q23 -15 41 -31zM180 215q-4 -16 -14 -38q-45 17 -64 17q-18 0 -38 -8q-25 -10 -25 -25q0 -18 20.5 -85t20.5 -99q0 -5 -14 -43l-41 214q-5 29 18.5 54.5t52.5 25.5q5 0 15 -1.5t15 -1.5q-25 29 -38 29
q-6 0 -15.5 -7.5t-12.5 -8.5v11q0 11 11.5 25t22.5 14q17 0 46 -30zM251 -57q0 -20 -15 -20q-2 0 -32 13q-15 -26 -61 -26h-7q25 11 61 31q-9 7 -12 14q4 8 16 18.5t20 10.5t19 -16t11 -25zM326 77q0 4 -1.5 12t-1.5 12q-27 -12 -36 -17q-25 -12 -32 -23q9 -4 24 -7
q47 10 47 23zM235 -52q-2 6 -11 11.5t-15 6.5l-2 -8q9 -5 28 -10z" />
    <glyph glyph-name="grave" unicode="&#xf060;" horiz-adv-x="120" 
d="M143 110v-110h-166v110h166z" />
    <glyph glyph-name="a" unicode="&#xf061;" horiz-adv-x="342" 
d="M156 427q-1 -15 -71 -56q-8 1 -37.5 25t-29.5 31q0 6 30 35t36 29q10 0 72 -64zM325 150q0 -91 -25 -150h-318v110l277 -1v3q-1 14 -7.5 39.5t-13.5 32.5q-24 -28 -43.5 -38t-54.5 -10t-64 16q-34 20 -34 53q0 49 58 110.5t107 61.5q50 0 87 -91q31 -75 31 -136zM204 243
q-31 43 -51 43q-11 0 -33 -25q30 -25 51 -25q17 0 33 7z" />
    <glyph glyph-name="b" unicode="&#xf062;" horiz-adv-x="402" 
d="M298 472q-19 -25 -62 -67l-86 44l-47 -42q-18 0 -87 47q24 29 65 67q59 -44 77 -44q49 44 54 44t45 -22.5t41 -26.5zM372 149q0 -23 -7 -78q-9 -61 -17 -71h-358v110h315q0 -1 1 -1v2q0 15 -6 38q-6 27 -15 35q-33 -48 -92 -48q-35 0 -64 17q-33 19 -33 52
q0 47 56.5 109.5t102.5 62.5q51 0 88 -92q29 -74 29 -136zM254 241q-1 9 -20.5 27t-28.5 18q-16 0 -33 -25q25 -25 50 -25q12 0 32 5z" />
    <glyph glyph-name="c" unicode="&#xf063;" horiz-adv-x="373" 
d="M348 491q-11 -50 -29 -110l-213 -64l117 -94q87 -75 87 -105q0 -15 -32 -118h-312v110h250l-112 86q-5 -12 -17 -12q-10 0 -46 37.5t-36 46.5q0 24 11 65l16 65z" />
    <glyph glyph-name="d" unicode="&#xf064;" horiz-adv-x="250" 
d="M225 370l-78 -101l12 -135q2 -13 -9 -64t-18 -60q-2 -3 -16 -10h-133v110h105q3 5 3 10q0 28 -13 111.5t-22 105.5q-15 11 -31 31q39 82 71 117l6 -5q1 -20 6 -33t53 -42q37 -23 64 -35z" />
    <glyph glyph-name="e" unicode="&#xf065;" horiz-adv-x="348" 
d="M321 118q0 -20 -25 -60l-37 -58q-2 10 -164 70q-9 -5 -25 -37.5t-27 -32.5h-65v110h75q7 6 33 67q16 38 71.5 77.5t95.5 39.5q21 0 27 -16q3 -17 7 -34l21 -63q13 -38 13 -63zM220 146q-4 18 -20 48l-6 1q-19 0 -46 -18z" />
    <glyph glyph-name="f" unicode="&#xf066;" horiz-adv-x="243" 
d="M172 418q-5 -11 -67 -78q-32 19 -99 47l77 80q28 -19 89 -49zM228 147q0 -39 -22 -147h-226v110h178q-21 57 -62 113l57 97q38 -51 53 -80q22 -46 22 -93z" />
    <glyph glyph-name="g" unicode="&#xf067;" horiz-adv-x="433" 
d="M414 119q0 -32 -16 -68q-18 -43 -45 -49q-3 -2 -8 -2h-364v110h59q14 37 43 88q49 82 50 84q1 12 5 34q1 5 24 68q252 -149 252 -265zM346 98q-21 49 -55 62q-8 0 -16.5 -13t-8.5 -21q0 -9 10 -18.5t19 -9.5h51zM212 155q0 15 -16.5 29t-31.5 14q-18 0 -65 -54
q1 -10 26 -22q22 -10 34 -10t32.5 16t20.5 27z" />
    <glyph glyph-name="h" unicode="&#xf068;" horiz-adv-x="342" 
d="M311 114q0 -87 -42 -176q-51 -107 -128 -107q-155 0 -204 39v7q22 7 66 8q49 2 69 7q45 11 106.5 62.5t78.5 92.5q6 17 6 27q0 7 -3 12q-21 -45 -29 -53q-17 -19 -57 -19q-67 0 -67 86q0 49 35 109q38 65 81 77q41 -11 67 -71q21 -51 21 -101zM227 126v3q1 14 -9.5 29.5
t-25.5 15.5q-13 0 -25 -12.5t-16 -25.5q27 -20 45 -20q4 0 31 10z" />
    <glyph glyph-name="i" unicode="&#xf069;" horiz-adv-x="484" 
d="M471 308l-31 -96q-7 41 -49 48q-35 -7 -76 -32q-50 -31 -50 -60q0 -22 43 -31l80 -14q43 -11 43 -40q0 -12 -7 -32q-7 -26 -28 -73q-4 -6 -41 -33q-89 -63 -205 -63q-152 0 -152 126q0 104 60 212q0 -4 3.5 -18t3.5 -21q0 -3 -14.5 -41t-14.5 -60q0 -41 48 -70
q43 -26 86 -26q35 0 107 11q84 14 94 28q0 4 -7 10q-46 6 -92 11q-59 14 -59 52q0 75 64 162q68 92 140 92q39 0 54 -42z" />
    <glyph glyph-name="j" unicode="&#xf06a;" horiz-adv-x="310" 
d="M296 156q0 -41 -22 -156h-290v110h240q-19 54 -62 112l57 98q77 -92 77 -164zM-4 -136q24 34 54 67q59 -42 71 -42q7 0 25.5 20.5t24.5 23.5l79 -49q-31 -48 -58 -69l-75 44q-15 -13 -45 -43q-52 27 -76 48z" />
    <glyph glyph-name="k" unicode="&#xf06b;" 
d="M166 718q-13 -31 -64 -65l-82 -50v11q11 24 66 60l80 53v-9zM166 681v-5q0 -25 -61 -66l-85 -53q1 10 11 29q22 22 65 50q62 39 70 45z" />
    <glyph glyph-name="l" unicode="&#xf06c;" 
d="M165 663q0 -8 -11 -27q-6 4 -19 10q-72 -82 -109 -98q7 41 7 52q0 32 -23 32q-11 0 -35 -14v6q0 14 17 28t32 14q23 0 28 -26q2 -6 2 -43v-3l53 55q-25 10 -26 10q-10 7 -10 23q0 21 18.5 46.5t39.5 25.5q22 0 22 -37q0 -18 -4 -36q1 -1 12 -7q6 -4 6 -11zM131 682v21
q0 17 -15 17q-7 0 -16 -6.5t-9 -13.5q0 -6 11.5 -12t17.5 -6h11z" />
    <glyph glyph-name="m" unicode="&#xf06d;" 
d="M145 -256l1 -6q0 -22 -61 -64l-83 -54v4q0 12 4 19.5t64 48.5q74 51 75 52zM147 -300q-2 -31 -59 -70l-86 -52q1 10 10 28q21 22 65 49q63 40 70 45z" />
    <glyph glyph-name="n" unicode="&#xf06e;" 
d="M175 700q-3 -29 -68 -76l-93 -62q0 25 16 39q25 22 71 51q64 41 74 48z" />
    <glyph glyph-name="o" unicode="&#xf06f;" 
d="M165 686q0 -2 -11 -23q-7 4 -24 10q-20 -34 -57 -63q-42 -33 -74 -33q37 31 106 99q-15 3 -28.5 7t-13.5 27t19.5 49t41.5 26q26 0 26 -41q0 -11 -7 -37q11 -4 17 -7q5 -9 5 -14zM127 709v25q0 5 -6.5 11t-10.5 6q-7 0 -16 -8t-9 -15q0 -13 42 -19z" />
    <glyph glyph-name="p" unicode="&#xf070;" 
d="M176 -260q-3 -29 -68 -76l-93 -62q0 25 16 39q25 22 71 51q64 41 74 48z" />
    <glyph glyph-name="q" unicode="&#xf071;" 
d="M155 727v-24q2 -65 -32 -76q4 2 -26 2q-30 -28 -48 -28q-20 0 -20 26q0 34 23 62q6 -2 7 -9q-6 -17 -6 -27l1 -9l5 -5h1q17 0 27 25q11 29 18 33l3 -2q-1 0 -1 -15q0 -17 17 -17q9 0 10 9q-1 -11 -1 16q0 21 22 39z" />
    <glyph glyph-name="r" unicode="&#xf072;" 
d="M147 688q0 -29 -23 -55t-51 -26q-16 0 -25 14t-9 30q0 28 17 57q19 33 44 33q8 0 15 -2q32 -30 32 -51zM123 678q0 8 -11 15.5t-19 7.5q-12 0 -24 -11.5t-12 -23.5q0 -19 24 -19q11 0 26.5 10.5t15.5 20.5z" />
    <glyph glyph-name="s" unicode="&#xf073;" 
d="M182 810q-4 -31 -67 -76l-93 -60q0 29 66 76zM164 716v-14q1 -31 -6 -55q-11 -33 -37 -33q-4 0 -15 4q-23 -28 -47 -28q-21 0 -21 27q0 43 25 61q5 -3 5 -8t-4 -15t-4 -15q0 -12 10 -12q17 0 26 25q11 29 20 33l-1 -17q0 -17 23 -17q4 0 4 5q2 16 4.5 31.5t17.5 27.5z
" />
    <glyph glyph-name="t" unicode="&#xf074;" 
d="M171 807q-4 -7 -11 -22q-9 2 -24 10q-24 -33 -57 -61q-42 -36 -72 -37l-2 5q11 14 50 43.5t54 51.5q-25 6 -30 9q-11 6 -11 25q0 23 19 48.5t42 25.5q25 0 25 -17q0 -8 -5 -18q21 -58 22 -63zM158 731l1 -14q1 -31 -7 -55q-11 -34 -36 -34q-4 0 -16 5q-22 -29 -47 -29
q-21 0 -21 27q0 43 26 62q4 -3 4 -8t-4 -15t-4 -15q0 -13 10 -13q17 0 27 27.5t19 30.5v-16q-1 -18 22 -18q4 0 5 6q1 15 3.5 31t17.5 28zM124 831v23q-8 19 -17 19q-7 0 -16 -9t-9 -16v-3q15 -14 42 -14z" />
    <glyph glyph-name="u" unicode="&#xf075;" 
d="M156 815v-13q2 -87 -45 -87q-2 0 -6.5 1t-7.5 1q-4 0 -8 -9q-19 -19 -38 -19q-21 0 -21 27q0 42 23 61q7 -1 7 -7q0 -5 -4 -15t-4 -15q0 -3 6 -13h7q11 0 21 24q12 28 21 34q1 -3 1 -18.5t16 -15.5q4 0 10 3q1 17 4 33t18 28zM174 731q-3 -29 -68 -77l-93 -61q5 34 67 77
z" />
    <glyph glyph-name="v" unicode="&#xf076;" 
d="M166 864q-3 -14 -17 -38q-25 -23 -69 -52l-74 -46q4 31 67 76zM176 808q-3 -19 -11 -30q-20 -29 -149 -106q2 30 66 76zM158 714v-25q1 -27 -8 -49q-11 -28 -35 -28q-3 0 -15 4q-17 -28 -47 -28q-21 0 -21 27q0 40 23 61q7 -2 7 -7t-4 -15t-4 -15q0 -13 10 -13
q17 0 26.5 28t19.5 30v-4l1 -23q7 -7 15 -7h7l3 5v8q0 32 22 51z" />
    <glyph glyph-name="w" unicode="&#xf077;" 
d="M179 796v-2q0 -15 -11 -32q-13 10 -19 10q-1 0 -20 -22q-37 -43 -89 -76q7 40 7 53q0 33 -23 33q-12 0 -35 -16q1 19 15.5 34.5t33.5 15.5q22 0 27 -22q0 -1 2 -40l1 -10l55 55q-13 4 -25.5 8.5t-12.5 24.5q0 23 18.5 45.5t40.5 22.5q23 0 23 -34q0 -11 -6 -38
q11 -4 18 -10zM166 720l1 -25q0 -38 -9 -53q-12 -22 -47 -22q-2 0 -19.5 -14t-30.5 -14q-20 0 -20 28q0 14 7 36.5t18 25.5l5 -7q-6 -22 -6 -36q0 -7 8 -7q23 0 30 43q7 11 13 15l3 -5v-12q-1 -19 18 -19q7 0 7 25q0 22 22 41zM145 808v23q0 4 -5 10.5t-9 6.5q-6 0 -16 -7
t-10 -13q0 -5 2 -6q7 -6 38 -14z" />
    <glyph glyph-name="x" unicode="&#xf078;" 
d="M160 825q0 -83 -48 -83q-6 0 -12 1q-29 -28 -47 -28q-21 0 -21 27q0 43 25 61q4 -2 4 -8q0 -5 -2.5 -14.5t-2.5 -15.5q0 -12 7 -12q16 0 26 23q13 32 16 35h7q0 -3 -1 -9t-1 -9q0 -16 16 -16q5 0 10 4l2 4l-1 12q-2 28 23 44v-16zM176 757q-6 -32 -65 -75l-89 -60h-8
q2 3 5 14q8 23 70 65zM190 709q-3 -29 -68 -76l-93 -62q2 34 66 78z" />
    <glyph glyph-name="y" unicode="&#xf079;" 
 />
    <glyph glyph-name="z" unicode="&#xf07a;" horiz-adv-x="260" 
d="M231 -49q-4 -5 -9 -5q-38 0 -68.5 37t-30.5 75q0 75 48 108q28 18 41 18h17v-9q-64 -4 -64 -110q0 -103 63 -110zM153 182q-2 -7 -11 -11q-15 -5 -16 -5q-37 -24 -37 -94q0 -51 8 -72q12 -31 53 -45l3 -6q-2 -3 -7 -3q-41 0 -71 39t-30 81q0 41 27 78q31 40 71 40
q5 0 10 -2z" />
    <glyph glyph-name="braceleft" unicode="&#xf07b;" horiz-adv-x="271" 
d="M224 72q0 -39 -31 -76.5t-69 -37.5q-5 0 -8 2v7q40 5 54 40q10 23 10 71q0 94 -64 109v7h16q37 0 66 -44q26 -40 26 -78zM148 72q0 -38 -31.5 -76t-68.5 -38q-6 0 -8 2v7q64 11 64 99q0 55 -9 75q-12 28 -55 46v7h16q92 -36 92 -122z" />
    <glyph glyph-name="bar" unicode="&#xf07c;" horiz-adv-x="440" 
d="M345 149q0 -11 -15 -20l-23 -14q-1 -7 -1 -42q0 -2 -6 -3q-5 0 -33 22t-37 24q-4 -1 -4 -6q0 -3 24 -30t26 -35q-5 -3 -12 -3q-4 0 -13 2t-13 2t-4 -5q0 -27 39 -88.5t63 -81.5v-7q-1 -4 -6 -4q-7 0 -33 21q-86 72 -122 165q-1 0 -50 -10q-3 2 -3 7q0 6 44 67v5q0 3 -5 3
q-6 0 -32 -25t-34 -25q-12 0 -10 47q-1 1 -22 13q-15 9 -15 21t13 20l24 15q1 8 1 44q3 2 8 2q6 0 32 -22q29 -25 36 -28q4 2 4 7q0 3 -20 34q-23 36 -24 36l2 5h23q1 0 30 -6q29 72 82 128q11 12 35 33q29 24 37 24q5 0 7 -2v-7q-100 -122 -100 -172l2 -2q35 2 34 2
q2 -2 2 -8q0 -4 -22 -30l-28 -33l5 -7q18 11 64 44h9q2 -8 3 -40l25 -16t13 -21zM250 242h-7q-4 0 -13 -3t-14 -3l-6 2q1 2 15 45q9 27 9 45v5q-34 -50 -47 -97q-13 3 -39 8l26 -38q0 12 2 19h14q3 7 13 18q2 -6 2 -18q9 0 14 -2v-13zM326 147v7q-13 9 -36 16v32l-40 -29h7
q10 0 16 -2v-12q11 -4 19 -10q-2 -2 -19 -7q0 -8 -2 -12h-25l44 -32q0 21 2 32q18 7 34 17zM228 151q0 12 -10 20.5t-22 8.5q-28 0 -28 -29t28 -29q12 0 22 9t10 20zM146 171l-44 31v-34q-8 0 -18 -5l-18 -9v-7q19 -13 34 -17q3 -10 3 -32q13 10 41 30h-26v14q-13 4 -18 9
q6 4 18 8q0 7 2 12h26zM250 59l-31 31l-2 -14h-12v-6q0 -9 -3 -14q-4 7 -12 19q-9 0 -14 3v16q-7 -9 -25 -40q20 7 31 7l7 -1q22 -63 45 -88v25q0 5 -11 32t-11 31t1 4h1q12 -1 36 -5z" />
    <glyph glyph-name="braceright" unicode="&#xf07d;" horiz-adv-x="391" 
d="M360 155q0 -15 -38 -34q1 -16 -5 -47h-8q-2 0 -30 24t-31 26l-7 -5l44 -64v-11q-2 -1 -7 -1q-1 0 -43 9q-31 -72 -77 -122q-59 -64 -78 -64q-5 0 -7 2v8q90 98 102 171l-3 5q-7 -4 -39 -4v7q0 3 25.5 30t25.5 35q0 2 -6 2q-2 0 -65 -46h-8q0 6 -3 45q-39 18 -39 34
q0 12 15 22l25 15v38q2 2 7 2t31 -18l34 -24h5l3 3l-50 60v9q16 4 37 0q1 2 1 8q0 18 -40.5 87.5t-51.5 69.5l-8 11l3 9h6q3 0 31 -22q76 -58 122 -163q16 4 50 8q3 -3 3 -9q0 -8 -43 -64v-7q0 -4 5 -4q10 0 31.5 25t33.5 25q5 0 8 -4q1 -7 1 -42l23 -14q15 -10 15 -21z
M259 250q-4 -1 -16.5 -4.5t-19.5 -3.5q-2 0 -9 22q-9 27 -9 28q-15 31 -29 47v-27q0 -4 10 -32q12 -32 13 -36l-9 -2q-3 0 -31 6l32 -32l2 15h12v5q0 7 3 12q4 -5 12 -17q6 0 16 -2v-15zM342 158q-4 2 -38 20q-1 21 -1 30q-13 -11 -39 -31h24v-12q12 -4 18 -10q-5 -3 -18 -7
q0 -10 -2 -14h-20q12 -10 37 -29q0 20 1 30q11 4 23.5 9t14.5 14zM241 157q0 29 -30 29q-10 0 -20 -9t-10 -20t9.5 -20t20.5 -9q30 0 30 29zM163 136h-26v12q-9 0 -20 7q9 9 20 10q0 9 2 14h20l-41 29q1 -8 1 -17t-1 -17q-20 -2 -35 -14v-7q4 -3 34 -17q3 -10 3 -32zM259 61
l-25 39v-5q0 -6 -2 -13l-4 1q-3 0 -21 -21q-2 5 -2 20q-10 0 -14 2v12l-32 -32h7q5 0 14.5 2.5t14.5 2.5h3q-1 -4 -13 -38q-10 -28 -10 -33v-10q1 -7 1 -10q15 20 47 90q6 0 36 -7z" />
    <glyph glyph-name="asciitilde" unicode="&#xf07e;" horiz-adv-x="425" 
d="M450 0h-111q-8 0 -18 26l-12 34q-7 -5 -21 -32.5t-23 -27.5h-212q-9 0 -15.5 10t-6.5 20q0 37 14 96q16 74 38 76q0 -9 -1.5 -28t-1.5 -28q0 -34 15 -34h198l1 8l-42 166l57 113q2 -6 42 -158q33 -123 48 -131h51v-110z" />
    <glyph glyph-name="DEL" unicode="&#xf07f;" horiz-adv-x="296" 
d="M322 0h-87q-32 0 -47 24l-22 40l-36 -64h-156v110h180q3 0 3 23.5t7 67.5q9 20 32 44q20 19 39 39v-42q0 -14 -4.5 -43.5t-4.5 -44.5q0 -31 37 -40q16 -4 59 -4v-110zM316 -72q-6 -10 -30 -36q-27 -28 -33 -29q-61 42 -75 42q-4 0 -26 -20l-27 -24l-86 46q6 12 30 40
t32 28q6 0 83 -44q15 15 46 42q27 -1 86 -45zM244 -173q0 -5 -26 -30t-32 -25q-8 0 -61 53q6 9 29.5 29.5t30.5 20.5q5 0 32 -21.5t27 -26.5z" />
    <glyph glyph-name="Adieresis" unicode="&#xf080;" horiz-adv-x="296" 
d="M217 394q-7 -12 -27 -39h-9q-40 1 -127 -51q5 17 20.5 28l30.5 22q-4 4 -33 11q-24 5 -24 20q0 33 30.5 64t63.5 31q9 0 21 -9t12 -18q0 -3 -9 -17q-11 -18 -12 -19q-1 1 -18 13q-12 9 -20 9q-9 0 -35 -17q13 -21 63 -25q37 -1 73 -3zM322 0h-87q-32 0 -47 24l-22 40
l-36 -64h-156v110h180q3 0 3 23.5t7 67.5q9 20 32 44q20 19 39 39v-42q0 -14 -4.5 -43.5t-4.5 -44.5q0 -32 37 -40q15 -4 59 -4v-110z" />
    <glyph glyph-name="Aring" unicode="&#xf081;" horiz-adv-x="487" 
d="M301 396q-12 -19 -27 -39q-63 0 -138 -53q1 18 52 52q-7 5 -27.5 9t-28.5 12v5q-1 37 29 68.5t67 31.5q8 0 19 -9.5t12 -18.5q-15 -22 -21 -35q-33 22 -39 22q-8 0 -35 -17q17 -28 137 -28zM498 0h-34l-35 -63q-21 -35 -46.5 -54t-101.5 -37q-68 -16 -109 -16
q-71 0 -116 28q-55 34 -55 100q0 63 47 135q42 66 99 104h7q-6 -19 -30 -45q-28 -31 -38 -48q-19 -33 -19 -78q0 -47 57 -75q46 -22 99 -22q84 0 157 32q-29 41 -99 41q-10 0 -30 -1t-30 -1l-2 8q0 19 59 102h220v-110z" />
    <glyph glyph-name="Ccedilla" unicode="&#xf082;" horiz-adv-x="481" 
d="M217 394q-14 -22 -29 -39q-61 -1 -134 -51q7 18 21.5 29l28.5 21q-5 5 -25.5 9t-28.5 12v3q0 39 26.5 70.5t64.5 31.5q9 0 21.5 -9.5t12.5 -17.5q0 -3 -9 -17q-12 -18 -12 -19q-11 8 -35 22h-5q-23 -9 -36 -17q15 -22 64 -25q38 -1 75 -3zM473 312l-31 -97q-12 49 -50 49
q-30 0 -77 -31q-50 -32 -50 -60q0 -25 44 -33l80 -12q44 -11 44 -43q0 -6 -7 -28q-8 -29 -30 -79q-4 -5 -34 -27q-97 -70 -211 -70q-152 0 -152 131q0 98 58 212q1 -5 5 -18.5t4 -20.5q0 -1 -14 -38.5t-14 -63.5q0 -45 49 -74q43 -25 92 -25q42 0 100 11q64 13 93 31
q-9 14 -52 18q-57 5 -71 10q-36 12 -36 47q0 75 64 161q68 93 140 93q51 0 56 -43z" />
    <glyph glyph-name="Eacute" unicode="&#xf083;" horiz-adv-x="228" 
d="M253 0h-152l-35 392q0 7 30 46q28 36 38 45l12 -182q9 -122 22 -175q3 -16 32 -16h53v-110z" />
    <glyph glyph-name="Ntilde" unicode="&#xf084;" horiz-adv-x="308" 
d="M331 0h-89q-41 0 -66 66l-38 -66h-167v110h192q4 0 4 28q0 50 6 63q10 21 32 44l38 39v-67q0 -10 -4 -30.5t-4 -30.5q0 -46 45 -46h51v-110zM229 -167q-10 -13 -37 -35q-31 -26 -43 -26q-8 0 -41.5 27.5t-33.5 35.5q0 7 33.5 38.5t40.5 31.5t44 -33t37 -39z" />
    <glyph glyph-name="Odieresis" unicode="&#xf085;" horiz-adv-x="573" 
d="M583 0h-75q-20 0 -40.5 19t-25.5 47l-38 -66h-290q-48 0 -79 30t-31 77q0 13 7 56q2 15 22 61q23 54 37 54h13q1 -1 1 -11l-14 -31t-14 -53q0 -28 23.5 -49.5t52.5 -21.5h296q7 12 9 48t3 38q22 33 69 82v-55q0 -3 -4 -36t-4 -35q0 -20 17 -32t40 -12h25v-110zM351 -145
q0 -10 -31.5 -33t-37.5 -23q-5 0 -35 24t-30 31t29.5 34.5t35.5 27.5q3 0 36 -28.5t33 -32.5z" />
    <glyph glyph-name="Udieresis" unicode="&#xf086;" horiz-adv-x="552" 
d="M531 180q0 -68 -64 -180h-361q-41 0 -68 34q-26 31 -26 72q0 39 24 98q27 67 58 74q2 -1 2 -7q0 -14 -12 -45.5t-12 -48.5q0 -26 24.5 -45.5t51.5 -19.5h311q-7 31 -42 92l57 98q20 -21 38 -57q19 -40 19 -65zM363 -149q0 -9 -34 -35.5t-44 -26.5q-9 0 -42.5 26.5
t-33.5 34.5t33 39t42 33q79 -63 79 -71z" />
    <glyph glyph-name="aacute" unicode="&#xf087;" horiz-adv-x="462" 
d="M303 450q-7 -12 -29 -38q-25 -29 -31 -29q-13 0 -82 42q-10 -7 -46 -40q-30 9 -83 43q9 12 59 67q58 -42 75 -42q-1 0 53 42zM483 0h-103q-32 0 -49 38l-20 64q-7 -5 -30 -47q-21 -36 -34 -33l-181 32q22 88 40 121t56 57l109 62q-7 16 -10 30l60 103l5 -3q9 -35 28 -150
q17 -99 31 -141q8 -23 47 -23h51v-110zM300 152l-18 88q-13 -19 -45 -49q-16 -7 -38 -26z" />
    <glyph glyph-name="agrave" unicode="&#xf088;" horiz-adv-x="288" 
d="M276 420q-17 -37 -63 -69l-86 44q-40 -42 -47 -42q-21 0 -86 47l65 65q58 -42 76 -42q3 0 26 20l28 24zM304 0h-70q-49 0 -65 64q-11 -16 -37 -64h-156v110h179q8 13 8 76q0 15 30 49l43 45v-46q0 -14 -5 -42.5t-5 -42.5q0 -7 9.5 -23t16.5 -16h52v-110z" />
    <glyph glyph-name="acircumflex" unicode="&#xf089;" horiz-adv-x="561" 
d="M408 382q-4 -9 -31 -40.5t-33 -31.5q-12 0 -89 47l-48 -45q-48 16 -90 47q9 16 31 37l34 35q11 -9 42.5 -27.5t38.5 -18.5q2 0 27 21l29 25zM574 0h-65q-23 0 -42.5 21t-23.5 45l-38 -66h-292q-47 0 -77.5 30.5t-30.5 76.5q0 33 21 98q23 73 45 73h14v-11l-14 -31.5
t-14 -52.5q0 -27 24 -49t52 -22h295q4 9 13 86q22 33 69 82v-55q0 -12 -4 -35t-4 -35q0 -45 42 -45h30v-110z" />
    <glyph glyph-name="adieresis" unicode="&#xf08a;" horiz-adv-x="544" 
d="M400 440q-37 -47 -63 -67l-87 44q-17 -17 -46 -42q-10 0 -44 19t-43 28l64 67q63 -44 77 -44q-2 0 55 44zM522 180q0 -71 -64 -180h-363q-34 0 -63 31.5t-29 65.5q0 44 21 102q25 68 58 79l5 -2v-9q-24 -62 -24 -90q0 -21 25.5 -43t46.5 -22h315q-3 23 -17 48l-25 44
l57 98q20 -21 38 -57q19 -40 19 -65z" />
    <glyph glyph-name="atilde" unicode="&#xf08b;" horiz-adv-x="289" 
d="M182 444q-5 -10 -24.5 -25.5t-29.5 -15.5q-18 0 -57 39q38 49 52 49q12 0 59 -47zM248 368q-7 -12 -25 -35q-21 -27 -26 -27q-10 0 -70 41l-36 -41q-51 22 -72 43q16 29 51 60q53 -36 63 -36q4 0 22.5 19t22.5 19q2 0 70 -43zM302 0h-71q-45 0 -65 64q-11 -16 -37 -64
h-156v110h179q8 15 8 76q0 15 30 49l43 45v-49q0 -12 -3.5 -37.5t-3.5 -38.5q0 -28 8 -36.5t27 -8.5q-2 0 41 0v-110z" />
    <glyph glyph-name="aring" unicode="&#xf08c;" horiz-adv-x="553" 
d="M313 444q-2 -9 -22 -25t-29 -16q-6 0 -31.5 17t-25.5 22q0 11 52 49q10 -1 56 -47zM381 368q-44 -62 -52 -62q-3 0 -34 19.5t-35 19.5t-36 -39q-36 14 -73 43q15 22 53 60q51 -36 62 -36l44 38zM570 0h-67q-43 0 -65 64q-11 -16 -37 -64h-293q-44 0 -75.5 29t-31.5 72
q0 46 19 104q23 74 58 73q3 0 3 -6q0 -2 -14 -35.5t-14 -53.5q0 -26 24 -48.5t51 -22.5h296q9 20 9 69q0 20 28 53l44 46v-46q0 -13 -4.5 -40t-4.5 -40q0 -20 13 -32t31 -12h30v-110z" />
    <glyph glyph-name="ccedilla" unicode="&#xf08d;" horiz-adv-x="535" 
d="M305 444q-2 -8 -23.5 -24.5t-29.5 -16.5q-6 0 -29.5 16t-27.5 23q43 49 52 49q10 0 58 -47zM371 368q-7 -12 -24 -34q-20 -27 -27 -27q-24 12 -70 40l-36 -40q-50 21 -71 42q18 31 51 60q52 -36 62 -36q4 0 22.5 18.5t22.5 19.5q24 -14 70 -43zM522 176q0 -47 -20 -92
q-12 -29 -45 -84h-361q-40 0 -67 35q-26 32 -26 72q0 39 24 97q27 67 57 74q3 -3 3 -9q0 -13 -11.5 -47t-11.5 -54q0 -16 27.5 -36t44.5 -20h312q1 1 1 4q0 12 -16 44l-24 44l55 99q58 -62 58 -127z" />
    <glyph glyph-name="eacute" unicode="&#xf08e;" horiz-adv-x="558" 
d="M575 0h-121q-8 49 -13 74q-9 4 -86 4q-46 0 -108.5 -39t-90.5 -39h-181v110h167q50 0 133 35l-70 25q-47 16 -68 16q-25 0 -48 -14t-34 -14v11q0 8 19 39q26 41 47 58q29 25 69 25q42 0 96 -26q90 -42 91 -42q70 -26 181 -33q-12 -40 -29 -80q15 1 46 0v-110zM337 -99
q-9 -15 -36 -46q-31 -35 -40 -35q-7 0 -45.5 23.5t-50.5 32.5q4 10 36.5 44t39.5 34q2 0 45 -24q48 -27 51 -29z" />
    <glyph glyph-name="egrave" unicode="&#xf08f;" horiz-adv-x="417" 
d="M439 -167q-51 -90 -210 -90q-91 0 -149 40q-67 45 -67 132q0 69 35.5 141.5t90.5 115.5q-12 8 -62 8q-25 0 -43.5 -12.5l-37.5 -25.5q20 75 27 91q24 54 68 54q29 0 86 -13.5t79 -13.5h143q-13 -33 -43 -99q-20 -1 -61 -5q-6 -5 -6 -13q0 -33 65 -33h79v-110h-108
q-41 0 -65.5 24.5t-24.5 65.5q0 12 7.5 32t8.5 28q-12 -2 -35 -8q-53 -20 -97 -66q-50 -52 -50 -103q0 -141 306 -141q22 0 64 1zM251 -25q-42 -69 -56 -69q-5 0 -35.5 26t-30.5 30q0 9 22 36.5t32 27.5q9 0 38 -21.5t30 -29.5z" />
    <glyph glyph-name="ecircumflex" unicode="&#xf090;" horiz-adv-x="417" 
d="M439 -167q-26 -47 -92 -71q-53 -19 -118 -19q-91 0 -149 40q-68 45 -68 132q0 71 36 142q34 66 91 115q-12 8 -58 8q-32 0 -49.5 -12l-36.5 -26q19 73 27 91q25 54 69 54q30 0 86 -13.5t79 -13.5h143q-14 -34 -44 -101q-45 -6 -133 -20q-52 -8 -102.5 -61t-50.5 -104
q0 -142 303 -142q19 0 67 1zM287 -7q0 -9 -24.5 -39t-30.5 -30q-13 8 -37 26q-28 23 -28 30q6 17 21 38q17 26 30 26q16 -6 40 -21q29 -19 29 -30z" />
    <glyph glyph-name="edieresis" unicode="&#xf091;" horiz-adv-x="541" 
d="M556 110v-110h-126q-8 42 -10 76q-42 4 -68 4q-61 0 -125 -40t-85 -40h-159v110q135 0 157 2q52 5 115 33q-108 43 -134 43q-31 0 -69 -30h-7q-2 3 -2 8q0 39 47 85.5t87 46.5q31 0 89 -27q86 -42 113 -51q75 -28 151 -26q-10 -41 -26 -84h52z" />
    <glyph glyph-name="iacute" unicode="&#xf092;" horiz-adv-x="424" 
d="M451 -167q-67 -90 -211 -90q-92 0 -149 40q-66 46 -66 134q0 142 126 256q-22 7 -70 7q-20 0 -38.5 -13.5l-35.5 -26.5v9q0 37 27 84q30 54 65 54q29 0 84.5 -13.5t82.5 -13.5h145q-9 -23 -44 -99q-21 -2 -62 -5q-4 -9 -4 -14q0 -32 68 -32h74v-110h-110q-37 0 -62.5 24
t-25.5 60q0 13 8 37.5t8 25.5q-1 1 -4 1q-49 0 -113.5 -60.5t-64.5 -113.5q0 -142 307 -142q20 0 65 1z" />
    <glyph glyph-name="igrave" unicode="&#xf093;" horiz-adv-x="417" 
d="M447 -167q-14 -44 -91 -69q-60 -21 -118 -21q-90 0 -149 39q-69 46 -69 132q0 72 36 142q34 67 91 116q-12 8 -62 8q-33 0 -80 -40v9q0 41 27 87q31 50 69 50q29 0 84.5 -13t78.5 -13h143q-16 -44 -44 -101q-105 -9 -163 -30q-41 -14 -81 -62q-42 -51 -42 -92
q0 -143 305 -143q22 0 65 1z" />
    <glyph glyph-name="icircumflex" unicode="&#xf094;" horiz-adv-x="556" 
d="M209 405q-1 -8 -33 -33t-41 -25q-19 0 -73 57q9 11 37 40t35 29q10 0 75 -68zM573 0h-122l-12 78h-119q-11 -4 -85 -45q-61 -33 -82 -33h-181v110h207q32 10 94 33q-24 11 -70 26q-53 17 -69 17q-24 0 -46.5 -14t-35.5 -14v13q56 119 136 119q46 0 122 -36
q85 -40 123.5 -47t119.5 -17q-10 -40 -26 -80q15 1 46 0v-110z" />
    <glyph glyph-name="idieresis" unicode="&#xf095;" horiz-adv-x="416" 
d="M250 406q0 -8 -24.5 -38.5t-31.5 -30.5t-66 56q1 10 22.5 37t30.5 27t39 -21.5t30 -29.5zM441 -167q-58 -90 -211 -90q-90 0 -148 39q-68 46 -68 132q0 70 36 142q34 68 90 115l-1 3q-27 7 -69 7q-18 0 -38 -15q-32 -23 -34 -24v7q0 13 11 45q17 48 30 64q22 28 62 28
q27 0 79 -13t78 -13h142q-13 -37 -42 -99q-21 -2 -62 -5q-4 -7 -4 -13q0 -33 77 -33h65v-110h-110q-37 0 -62.5 24t-25.5 60q0 12 8 34.5t8 28.5q0 1 -4 1q-51 0 -114.5 -60.5t-63.5 -112.5q0 -143 304 -143q20 0 67 1z" />
    <glyph glyph-name="ntilde" unicode="&#xf096;" horiz-adv-x="426" 
d="M250 429q0 -15 -55 -70q-67 44 -67 57q0 10 21 36.5t32 26.5q9 0 39 -21t30 -29zM450 -167q-56 -90 -210 -90q-91 0 -149 40q-67 45 -67 132q0 69 36 141q35 69 90 115l-2 3q-26 6 -56 6q-25 0 -45 -11q-10 -5 -39 -27v9q0 10 11 43q16 46 30 64q22 28 61 28
q27 0 79.5 -13t77.5 -13h143q-18 -49 -44 -101q-95 -12 -90 -12q-64 0 -130 -55.5t-66 -117.5q0 -98 146 -129q75 -15 224 -12z" />
    <glyph glyph-name="oacute" unicode="&#xf097;" horiz-adv-x="873" 
d="M763 -67h-731v31h731v-31z" />
    <glyph glyph-name="ograve" unicode="&#xf098;" horiz-adv-x="423" 
d="M232 422q-11 -14 -34 -33q-27 -22 -39 -22q-21 0 -70 53q6 11 33.5 39t36.5 28q8 0 73 -65zM450 0h-111q-10 4 -18 27l-12 35q-4 -4 -22 -35q-14 -27 -22 -27h-212q-22 0 -22 30q0 36 13 95q17 74 39 77q-2 -20 -2 -46q0 -44 14 -44h197l2 9l-40 162q7 26 25 59l32 57
q39 -165 65 -250q13 -39 23 -39h51v-110z" />
    <glyph glyph-name="ocircumflex" unicode="&#xf099;" horiz-adv-x="393" 
d="M414 0h-73q-14 0 -39 12l-5 -6l-62 -109q-46 -65 -101 -65q-37 0 -107.5 35t-97.5 65v13q0 2 5 2q-3 0 33 -20t64 -20q43 0 126 55.5t83 90.5q0 17 -29 54.5t-29 39.5q0 6 24.5 46t32.5 50l60 -90q34 -43 96 -43h19v-110z" />
    <glyph glyph-name="odieresis" unicode="&#xf09a;" horiz-adv-x="1000" 
 />
    <glyph glyph-name="otilde" unicode="&#xf09b;" horiz-adv-x="393" 
d="M305 404q-2 -10 -33 -34t-41 -24q-7 0 -37 25t-30 31t30.5 35.5t36.5 29.5q13 0 74 -63zM414 0h-73q-14 0 -39 12l-5 -6l-62 -109q-46 -65 -101 -65q-37 0 -107.5 35t-97.5 65v13q0 2 5 2q-3 0 33 -20t64 -20q43 0 126 55.5t83 90.5q0 17 -29 54.5t-29 39.5q0 6 24.5 46
t32.5 50l60 -90q34 -42 96 -43h19v-110z" />
    <glyph glyph-name="uacute" unicode="&#xf09c;" horiz-adv-x="1000" 
 />
    <glyph glyph-name="ugrave" unicode="&#xf09d;" horiz-adv-x="322" 
d="M339 0h-83l-13 28q-7 -9 -20 -28h-134q-13 18 -20 18q-3 0 -11.5 -9t-11.5 -9h-71v110h79q9 9 9 36q0 14 30 55q27 36 43 50q3 -6 3 -11q0 -61 -17 -130q6 3 76 0q5 6 5 12t-3 17.5t-3 17.5q0 12 27 45.5t39 40.5q4 -16 4 -42v-15v-14q0 -62 46 -62h26v-110z" />
    <glyph glyph-name="ucircumflex" unicode="&#xf09e;" horiz-adv-x="322" 
d="M133 446q-7 -10 -28 -29q-24 -21 -33 -21q-5 0 -32 22.5t-27 26.5q0 10 59 55q8 -1 61 -54zM219 363q-11 -31 -61 -66l-85 43q-49 -41 -47 -41q-10 0 -86 44q17 23 64 66q59 -43 76 -43q3 0 26 20q14 12 27 25zM339 0h-83l-13 28q-7 -9 -20 -28h-134q-13 18 -20 18
q-3 0 -11.5 -9t-11.5 -9h-71v110h79q9 9 9 36q0 14 30 55q27 36 43 50q3 -6 3 -11q0 -61 -17 -130q6 3 76 0q5 6 5 12t-3 17.5t-3 17.5q0 12 27 45.5t39 40.5q4 -16 4 -42v-15v-14q0 -62 46 -62h26v-110z" />
    <glyph glyph-name="udieresis" unicode="&#xf09f;" horiz-adv-x="433" 
d="M460 0h-493v110h44q54 47 145 94q104 55 160 55q38 0 74 -36t36 -75q0 1 -10 -38h44v-110zM331 114q-34 56 -96 56q-36 0 -139 -56h235z" />
    <glyph glyph-name="dagger" unicode="&#xf0a0;" horiz-adv-x="250" 
 />
    <glyph glyph-name="degree" unicode="&#xf0a1;" horiz-adv-x="190" 
d="M208 0h-88q-1 13 -9 28q-5 -3 -16 -15.5t-20 -12.5h-88v110h113q13 24 13 52q0 14 29 47t44 39l2 -25q0 -27 -30 -113h50v-110z" />
    <glyph glyph-name="cent" unicode="&#xf0a2;" horiz-adv-x="442" 
d="M465 0h-58q-31 -85 -64 -116q-38 -36 -124 -50q-17 -3 -40 -3q-67 0 -111 23q-56 29 -56 90q0 49 41 136q45 96 86 96v-17q0 2 -30 -42t-30 -81q0 -49 42 -73q35 -19 88 -19q34 0 81 8q63 11 63 29q0 38 -68 144l63 99l38 -61q23 -35 48 -53h31v-110z" />
    <glyph glyph-name="sterling" unicode="&#xf0a3;" horiz-adv-x="537" 
d="M555 0h-575v110h50q42 0 42 25q0 40 -25 210q-2 13 -12.5 25t-10.5 23q0 27 61 96q6 -12 17 -31q28 -44 96 -70l-24 -54q-18 -32 -42 -35q-1 -6 0 -14q2 -10 2 -14v-50q0 -10 -10 -33.5t-9 -34.5v-5q59 36 139 74q105 50 143 50q30 0 80 -47t50 -77q0 -2 -16 -38h44v-110
zM430 109q-10 27 -39.5 48t-58.5 21q-65 0 -172 -69h270z" />
    <glyph glyph-name="section" unicode="&#xf0a4;" horiz-adv-x="694" 
d="M710 0h-616q-37 0 -64 33q-25 30 -25 67q0 33 14 75q17 51 41 57q5 -2 5 -15q-14 -30 -14 -53q0 -42 47 -53q18 -4 80 -4q43 0 43 23q0 70 -26 215q-2 9 -12 22.5t-10 24.5q0 21 24 52l40 45q12 -61 109 -103l-25 -54q-17 -32 -42 -35q4 -35 4 -54q0 -23 -21 -94v-5
q31 26 138 76q111 50 144 50q32 0 82 -47t50 -79l-18 -34q-2 0 52 0v-110zM580 109q-9 22 -42 45.5t-56 23.5q-32 0 -90.5 -24.5t-81.5 -46.5z" />
    <glyph glyph-name="bullet" unicode="&#xf0a5;" horiz-adv-x="753" 
d="M731 142l-59 -142h-553q-37 0 -63.5 32t-26.5 68q0 83 43 127q12 5 14 5q3 0 3 -15q0 -9 -7 -26.5t-7 -26.5q0 -57 85 -57h72q44 0 44 27q0 65 -25 207q-3 15 -13 27.5t-10 24.5q0 14 25.5 50t39.5 46q6 -33 42 -63q30 -26 67 -40l-25 -54q-17 -32 -41 -35q-1 -9 0.5 -26
t1.5 -26q0 -33 -20 -94v-2q0 -2 1 -3q210 124 280 124q36 0 80 -45.5t52 -82.5zM634 109q-9 22 -41 45.5t-56 23.5q-33 0 -89 -24q-48 -21 -82 -45h268z" />
    <glyph glyph-name="paragraph" unicode="&#xf0a6;" horiz-adv-x="540" 
d="M410 386q0 -16 -79 -61q-9 1 -42 27.5t-33 33.5t33.5 39t40.5 32t43.5 -33t36.5 -38zM552 0h-576v110h53q41 0 41 21q0 78 -27 216q-2 10 -11.5 21.5t-9.5 24.5q0 36 63 96q12 -57 111 -105l-26 -52q-15 -31 -42 -35q4 -35 4 -51q0 -21 -8 -51q-6 -26 -13 -51
q48 32 139 75q108 51 144 51q32 0 81 -47.5t50 -79.5l-17 -33h44v-110zM428 109q-9 22 -41 45.5t-56 23.5q-38 0 -91 -23q-46 -21 -82 -48z" />
    <glyph glyph-name="germandbls" unicode="&#xf0a7;" horiz-adv-x="708" 
d="M564 366q0 -15 -75 -59q-9 1 -41 26t-32 32t31.5 36t40.5 32q76 -61 76 -67zM722 0h-614q-35 0 -63 31t-28 66q0 32 15 78q19 57 42 57q3 -4 3 -10q0 -9 -6 -28t-6 -29q0 -43 46 -54q16 -4 81 -4q41 0 41 25q0 35 -10 113q-10 82 -18 110q-2 6 -11 15t-9 23q0 27 64 96
q9 -34 43 -63q30 -26 68 -40l-25 -53q-18 -32 -42 -36q0 -9 1.5 -27.5t1.5 -28.5q0 -21 -8 -49q-7 -24 -13 -48q45 33 140 77q105 49 141 49q31 0 81.5 -46.5t50.5 -77.5l-16 -36h50v-110zM592 109q-10 22 -42 45.5t-55 23.5q-33 0 -90 -24t-81 -47z" />
    <glyph glyph-name="registered" unicode="&#xf0a8;" horiz-adv-x="749" 
d="M626 385q0 -20 -87 -66q-10 1 -46.5 30t-36.5 37t37.5 43.5t45.5 35.5q6 0 46.5 -37.5t40.5 -42.5zM723 142l-59 -142h-551q-38 0 -65 31.5t-27 68.5q0 83 43 127q12 5 14 5q3 0 3 -15q0 -9 -7 -26.5t-7 -26.5q0 -57 85 -57h73q43 0 43 28q0 61 -25 206q-2 11 -12.5 26
t-10.5 27q0 15 26 50q23 31 39 45q11 -59 109 -103l-25 -54q-17 -32 -41 -35q0 -4 1 -12.5t1 -12.5v-53q0 -11 -9.5 -34t-9.5 -35v-4q210 124 280 124q34 0 82 -47t50 -81zM626 109q-11 23 -42 46t-55 23q-33 0 -89 -24q-48 -21 -82 -45h268z" />
    <glyph glyph-name="copyright" unicode="&#xf0a9;" horiz-adv-x="328" 
d="M344 0h-126q-9 17 -29 50q-10 -17 -32 -50h-179v110h168q-31 44 -78 44q-3 0 -36 -5q34 76 52 96q33 35 103 35q42 0 83 -28q44 -31 44 -72q0 -14 -13 -36l-21 -35q6 1 64 1v-110z" />
    <glyph glyph-name="trademark" unicode="&#xf0aa;" horiz-adv-x="380" 
d="M432 -169q-20 -45 -92 -69q-55 -19 -116 -19q-92 0 -150 38q-69 45 -69 132q0 118 114 228q-13 17 -35 19.5t-43 4.5q15 65 36 93q30 40 87 40q44 0 87 -22q51 -27 51 -67q0 -19 -10 -38.5l-19 -38.5q-16 -1 -19 -1q-10 -2 -16 -8q9 -15 19 -13h145v-110h-184
q-15 16 -31 49q-18 37 -29 51q-34 0 -66.5 -43t-32.5 -78q0 -102 148 -134q67 -14 225 -14z" />
    <glyph glyph-name="acute" unicode="&#xf0ab;" horiz-adv-x="337" 
d="M443 -197q-71 -86 -242 -86q-85 0 -130 23q-61 31 -61 108q0 44 22 102q21 55 50 91l-1 2q-71 31 -71 80q0 43 51 109q53 70 94 70q28 0 63.5 -30.5t43.5 -57.5q-33 6 -56 6q-31 0 -69 -9q-51 -13 -51 -34q0 -39 68 -39q29 0 83 24t83 22q-10 -30 -35 -89
q-82 -24 -139 -64q-78 -55 -78 -122q0 -78 160 -99q50 -7 215 -7z" />
    <glyph glyph-name="dieresis" unicode="&#xf0ac;" horiz-adv-x="336" 
d="M270 410q0 -17 -79 -62q-9 2 -42 28t-33 33t32.5 38.5t41.5 33.5q80 -64 80 -71zM350 0h-123l-30 50q-10 -17 -32 -50h-177v110h166q-28 44 -78 44q-4 0 -36 -6q34 77 52 96q34 36 103 36q44 0 83 -27q44 -31 44 -73q0 -16 -13 -36q-18 -28 -21 -34h62v-110z" />
    <glyph glyph-name="notequal" unicode="&#xf0ad;" horiz-adv-x="387" 
d="M236 426q-13 -22 -53 -76l-78 55l53 74zM440 -169q-56 -88 -209 -88q-93 0 -150 38q-68 44 -68 132q0 63 32 126t82 102q-13 16 -35 19t-43 5q16 66 37 94q30 39 89 39q42 0 85 -23q50 -28 50 -67q0 -26 -31 -75q-24 -2 -35 -10q11 -14 19 -13h147v-110h-186
q-19 34 -60 100q-97 -37 -97 -121q0 -102 149 -134q68 -14 224 -14z" />
    <glyph glyph-name="AE" unicode="&#xf0ae;" horiz-adv-x="332" 
d="M197 412l-47 -64l-65 47l45 66q32 -20 67 -49zM438 -197q-79 -86 -242 -86q-191 0 -191 131q0 100 72 193l-48 31.5t-24 49.5q0 43 52 111.5t93 68.5q28 0 64 -30.5t43 -57.5q-32 6 -56 6q-32 0 -69 -9q-51 -13 -51 -35q0 -38 68 -38q29 0 82.5 23.5t83.5 22.5
q-6 -24 -13 -47q-10 -30 -23 -42q-5 -5 -20 -9q-11 -2 -22 -5q-63 -20 -113 -64q-61 -52 -61 -108q0 -79 160 -99q49 -7 215 -7z" />
    <glyph glyph-name="Oslash" unicode="&#xf0af;" horiz-adv-x="364" 
d="M259 388q-4 -13 -36 -38.5t-44 -25.5q-9 0 -42.5 27t-33.5 35q7 13 35.5 41.5t39.5 29.5q22 -11 81 -69zM381 0h-400v110h96q1 16 16 50q40 49 87 86q63 50 108 50q31 0 48 -35q13 -27 13 -63q0 -24 -12.5 -45.5l-25.5 -42.5h70v-110zM267 130q0 18 -14.5 37t-32.5 19
q-14 0 -41 -13q-30 -14 -30 -26q0 -13 26 -26q23 -11 39 -11q53 0 53 20z" />
    <glyph glyph-name="infinity" unicode="&#xf0b0;" horiz-adv-x="683" 
d="M574 386q-9 -13 -38 -37q-32 -25 -42 -25q-8 0 -42 27.5t-34 34.5q0 8 32 38q29 26 43 35q30 -23 43 -34q23 -20 38 -39zM700 0h-608q-37 0 -66 41q-27 38 -27 77q0 29 14 78q16 54 33 70l3 -11q0 -10 -6 -31.5t-6 -32.5q0 -26 15 -52q18 -29 42 -29h306q0 10 4 30
q21 45 90 99q73 57 119 57q29 0 46 -35q13 -29 13 -62q0 -29 -38 -89h66v-110zM590 127q-2 21 -14 38q-13 21 -32 21q-12 0 -43 -14.5t-31 -24.5q0 -15 30 -26q24 -9 42 -9q33 0 48 15z" />
    <glyph glyph-name="plusminus" unicode="&#xf0b1;" horiz-adv-x="609" 
d="M416 419q0 -18 -74 -58q-72 44 -72 57q0 7 32 38t40 31q4 0 39 -32.5t35 -35.5zM588 143l-22 -143h-451q-49 0 -82.5 37t-33.5 85q0 31 14 83q17 60 35 73q11 0 11 -10q0 -12 -6 -36.5t-6 -36.5q0 -34 23.5 -59.5t58.5 -25.5h392q1 1 1 4q0 12 -6 33q-7 25 -15 29
q-32 -48 -92 -48q-35 0 -63 17q-34 19 -34 51q0 48 57 110.5t104 62.5q45 0 85 -92q38 -85 30 -134zM472 235q-7 12 -22 27q-18 16 -29 16q-17 0 -33 -25q26 -25 48 -25q-3 0 36 7z" />
    <glyph glyph-name="lessequal" unicode="&#xf0b2;" horiz-adv-x="355" 
d="M308 410q-28 -44 -64 -69l-85 44q-21 -17 -44 -42q-35 7 -90 46q32 39 63 68q59 -42 77 -42q6 0 27 19l27 25zM372 0h-398v110h94q0 12 6 34q25 45 89 96q70 56 116 56q33 0 49 -36q12 -28 12 -66q0 -26 -38 -84h70v-110zM258 131q0 19 -14 37t-32 18q-12 0 -42 -14.5
t-30 -24.5q0 -16 28 -26q23 -9 43 -9q47 0 47 19z" />
    <glyph glyph-name="greaterequal" unicode="&#xf0b3;" horiz-adv-x="477" 
d="M442 414q-29 -47 -64 -69l-85 44l-48 -42q-9 0 -41.5 18.5t-44.5 28.5q19 23 63 67q63 -44 78 -44q-2 0 54 46zM500 0h-71q-39 -166 -241 -166q-183 0 -183 141q0 47 35 127q38 89 75 96v-7q-58 -100 -58 -149q0 -50 44 -81q39 -27 90 -27q60 0 114 11q82 17 77 53
q-33 3 -66 5q-43 4 -65 17q-30 18 -30 54q0 49 40 123q44 83 88 83q39 0 64 -68q10 -26 26 -102h61v-110zM367 112q-4 19 -20 42.5t-32 23.5q-10 0 -23.5 -12.5t-13.5 -22.5q0 -15 25 -24q19 -7 38 -7h26z" />
    <glyph glyph-name="yen" unicode="&#xf0b4;" horiz-adv-x="476" 
d="M332 406q-25 -39 -63 -70l-84 45q-26 -19 -46 -43q-44 15 -89 47q26 32 65 68q59 -44 76 -44q3 0 23 17q27 25 32 29zM459 75q0 -96 -63 -169q-8 -9 -68 -31q-100 -38 -163 -38q-155 0 -155 127q0 52 32 121q31 66 73 108q11 5 11 -5q0 -6 -30 -63t-30 -87q0 -53 53 -77
q37 -17 82 -17q61 0 138 24q8 3 38 19q38 20 38 28t-8 41q-10 38 -17 50q-35 -66 -81 -66q-33 0 -57 14q-32 18 -32 55q0 49 46 125q49 80 90 80q24 0 53 -44q23 -35 33 -67q17 -55 17 -128zM366 149q-6 22 -22 36.5t-33 14.5q-8 0 -20 -6q-17 -8 -17 -20q0 -14 26 -23
q20 -7 38 -7q12 0 28 5z" />
    <glyph glyph-name="mu" unicode="&#xf0b5;" horiz-adv-x="355" 
d="M368 0h-83l-72 68l-41 -68h-190v110h186l-156 150q13 75 41 148q287 62 299 60q-11 -51 -29 -107l-227 -46l106 -121q76 -84 120 -84h46v-110z" />
    <glyph glyph-name="partialdiff" unicode="&#xf0b6;" horiz-adv-x="611" 
d="M406 454q-17 -47 -33 -69q-24 -6 -48 -11q-28 -8 -45 -19q10 -14 38 -14q35 1 43 -2q15 -7 15 -25q0 -47 -41 -77q-37 -27 -85 -27q-61 0 -80 16q7 3 60 18q37 10 58 23l-52 8q-32 8 -32 32q0 41 80 96q77 51 122 51zM634 0h-121q-7 4 -9 18q-1 9 -1 26q2 24 2 22
l-35 -66h-365q-41 0 -69 41q-25 36 -25 78q0 88 46 147q2 -5 2 -13q0 -10 -5 -31t-5 -32q0 -26 15 -52q18 -30 43 -30h396l-33 267q0 3 1 7q21 36 69 105q15 -65 23 -177q11 -144 16 -181q3 -19 28 -19h27v-110z" />
    <glyph glyph-name="summation" unicode="&#xf0b7;" horiz-adv-x="672" 
d="M396 454q-6 -27 -32 -69q-44 -10 -49 -11q-29 -8 -45 -19q11 -11 58 -13q38 -2 38 -29q0 -47 -41 -76q-36 -27 -84 -27q-44 0 -81 15q41 10 120 42l-52 8q-32 8 -32 32q0 42 79 97q76 51 121 50zM655 370q-28 -32 -76 -97q-1 -10 0 -12l12 -126q1 -14 -12 -68
q-14 -57 -22 -62t-16 -5h-440q-41 0 -69 41q-25 36 -25 78q0 86 46 147q3 -5 3 -12q0 -10 -5 -31.5t-5 -32.5q0 -26 15 -52q17 -30 42 -30h414q3 5 3 17q0 31 -11 106t-21 102q-1 5 -17.5 18.5t-16.5 17.5q0 11 33 59.5t45 56.5q1 -15 9 -43q6 -10 53 -38q41 -26 61 -34z
" />
    <glyph glyph-name="product" unicode="&#xf0b8;" horiz-adv-x="199" 
d="M213 0h-101q-12 0 -16 28l-2 38l-36 -66h-71v110h104l-40 269l77 108l4 -3q17 -66 24 -178q9 -143 14 -179q2 -14 16 -16q3 -1 27 -1v-110z" />
    <glyph glyph-name="pi" unicode="&#xf0b9;" horiz-adv-x="448" 
d="M463 0h-67q-1 -1 -5 -4q-63 -140 -222 -140q-65 0 -114 33q-55 36 -55 92q0 52 31.5 117.5t76.5 107.5q0 -3 1 -14.5t1 -13.5q0 5 -20 -27.5t-20 -73.5q0 -105 143 -105q29 0 68 8q45 10 58 23l-42 373q0 11 31 57q29 43 40 54q10 -44 14 -85q7 -88 25 -277q2 -15 10 -15
h46v-110z" />
    <glyph glyph-name="integral" unicode="&#xf0ba;" horiz-adv-x="463" 
d="M439 400q-26 -60 -47 -95q-1 -1 -22 0l19 -223q0 -2 -6 -29q-7 -30 -8 -34q-11 -71 -82 -120q-66 -45 -141 -45q-61 0 -99 28q-43 31 -43 91q0 50 30 119t67 102h9v-15q-14 -23 -32 -62q-20 -46 -20 -63q0 -40 38 -67q34 -23 76 -23q34 0 84 13q63 17 63 40q0 38 -15 153
q-13 108 -22 153q-3 13 -20.5 27t-17.5 26q0 19 20 57q18 34 34 52q-1 -26 27 -42q15 -10 58 -22q38 -12 50 -21z" />
    <glyph glyph-name="ordfeminine" unicode="&#xf0bb;" horiz-adv-x="378" 
d="M396 0h-74q-6 -6 -14.5 -25.5t-20.5 -24.5l-194 108q-5 -4 -16 -35q-9 -23 -28 -23h-69v110h103q7 5 23.5 36.5t26.5 41.5q26 26 65.5 46t72.5 20q16 0 21.5 -4.5t6.5 -17.5q-1 -34 17 -74q21 -48 52 -48h28v-110zM242 112v21q0 23 -29 23q-22 0 -35 -10l31 -20
q22 -13 33 -14z" />
    <glyph glyph-name="ordmasculine" unicode="&#xf0bc;" horiz-adv-x="429" 
d="M450 0h-60l-37 -48l-121 56q-75 35 -108 75l34 70q-1 1 -4 1q-16 0 -42 -12q-30 -14 -28 -28l24 -204q3 -24 -52 -133l-40 285q-4 26 35 94q9 18 31 50q45 47 238 82q5 -45 22 -100q24 -78 49 -78h59v-110zM294 102q-12 36 -18 74q-17 -6 -33 -11q-20 -8 -29 -18
q31 -25 80 -45z" />
    <glyph glyph-name="Omega" unicode="&#xf0bd;" horiz-adv-x="363" 
d="M341 171l-39 -104q-56 22 -110 22q-75 0 -116 -22q18 -67 18 -109q0 -33 -12 -86q-15 -65 -33 -72l-41 261q-2 16 20 45q18 25 36 39t110 43q-20 31 -51 31q-21 0 -47 -23l-42 -37q55 168 134 168q37 0 95 -62z" />
    <glyph glyph-name="ae" unicode="&#xf0be;" horiz-adv-x="301" 
d="M244 405q-2 -9 -31 -43t-36 -35q-32 17 -97 45q18 27 75 79q32 -20 89 -46zM312 0h-75q-39 0 -62 65l-36 -65h-155v110h178q5 14 4.5 44t6.5 44q8 21 31 45l40 40v-45q0 -14 -5 -43.5t-5 -43.5q0 -41 54 -41h24v-110z" />
    <glyph glyph-name="oslash" unicode="&#xf0bf;" horiz-adv-x="441" 
d="M250 318q0 -14 -74 -56q-8 1 -40 26t-32 30q0 6 32.5 37.5t38.5 31.5t40.5 -32t34.5 -37zM458 0h-68q-5 0 -18 -34.5t-20 -48.5q-13 -28 -30.5 -41.5t-71 -30t-77.5 -16.5q-176 0 -176 113q0 115 98 226q0 -3 1.5 -10.5t1.5 -11.5q0 2 -20 -47t-20 -78q0 -42 47 -63
q36 -16 85 -16q101 0 144 35q-4 55 -64 149l61 98l39 -68q30 -46 56 -46h32v-110z" />
    <glyph glyph-name="questiondown" unicode="&#xf0c0;" horiz-adv-x="438" 
d="M301 337q0 -15 -75 -59q-7 1 -39 27.5t-32 31.5q0 7 32 36q28 26 39 33q75 -56 75 -69zM418 85q0 -17 -14 -61l-15 -47q-10 -29 -22 -43q-25 -28 -88 -50q-59 -21 -102 -21q-158 0 -158 107q0 47 29 119q32 80 68 99h7q2 -1 2 -6q0 -2 -22 -43.5t-22 -70.5q0 -49 39 -74
q33 -20 84 -20q29 0 82 11q60 13 74 28q-16 74 -71 147l57 94q30 -32 51 -80t21 -89z" />
    <glyph glyph-name="exclamdown" unicode="&#xf0c1;" horiz-adv-x="292" 
d="M305 0h-31q-44 -143 -126 -143q-32 0 -62 37q-19 23 -43 69q-19 37 -23 37h-45v110h78q9 24 30 70q28 49 78 92q58 52 104 52v-57q0 -26 -21 -79l-33 -78h94v-110zM205 213q0 14 -3 23q-37 -24 -99 -104h7l64 25q31 16 31 56zM205 -36v7q-11 23 -47 39q-32 14 -61 14
q11 -25 35 -42.5t50 -17.5h23z" />
    <glyph glyph-name="logicalnot" unicode="&#xf0c2;" horiz-adv-x="422" 
d="M449 0h-99q-34 0 -52 38l-21 66l-27 -49q-19 -34 -36 -31l-178 30v11q0 5 7 24q25 78 43 105t54 47l99 54q-1 4 -5.5 16t-4.5 16q0 3 55 102q7 -25 31 -158q21 -116 32 -140q5 -10 35 -21h67v-110zM266 154v19l-16 67q-12 -16 -39 -44q-17 -7 -44 -29z" />
    <glyph glyph-name="radical" unicode="&#xf0c3;" horiz-adv-x="318" 
d="M292 150q0 -22 -21 -66q-46 -92 -154 -92q-93 0 -93 55q0 46 58 135q41 64 91 120q59 -39 81 -62q38 -41 38 -90zM214 102q-13 43 -85 96q-43 -59 -43 -69q0 -35 57 -35q24 0 71 8z" />
    <glyph glyph-name="florin" unicode="&#xf0c4;" horiz-adv-x="345" 
d="M366 0h-76q-26 -59 -69 -106q-55 -59 -106 -59q-42 0 -97 21q-58 22 -83 51v10q4 3 9 3q15 0 44 -8t43 -8q44 0 103 31q52 28 88 63q-80 14 -87 17q-51 17 -51 61q0 47 39 122q44 84 88 84q68 0 95 -172h60v-110zM226 117q-16 35 -18 37q-14 24 -29 24q-7 0 -20.5 -13
t-12.5 -20v-4q17 -29 60 -29q10 0 20 5z" />
    <glyph glyph-name="approxequal" unicode="&#xf0c5;" horiz-adv-x="480" 
d="M502 0h-38l-37 -66q-25 -39 -49 -54q-31 -18 -99 -33q-63 -14 -105 -14q-71 0 -116 26q-55 33 -55 99q0 60 47 132q42 64 96 106h9q3 -2 3 -7q0 -6 -23 -31q-28 -32 -41 -55q-23 -39 -23 -76q0 -50 56 -76q42 -19 99 -19q77 0 156 29q-22 33 -74 39l-88 8q15 44 60 102
h222v-110z" />
    <glyph glyph-name="Delta" unicode="&#xf0c6;" horiz-adv-x="1000" 
 />
    <glyph glyph-name="guillemotleft" unicode="&#xf0c7;" horiz-adv-x="289" 
d="M310 0h-65q-53 0 -71 64q-9 -13 -37 -64h-156v110h179q8 14 8 37q-1 -56 -1 38q0 18 30 51l44 46v-53q0 -12 -3.5 -36.5t-3.5 -36.5q0 -46 46 -46h30v-110zM268 -105l-29 -38q-23 -30 -29 -30q-9 0 -76 44q-16 -11 -41 -42q-39 14 -80 45q4 10 25 35q16 17 31 35
q29 -22 71 -44l46 46z" />
    <glyph glyph-name="guillemotright" unicode="&#xf0c8;" horiz-adv-x="468" 
d="M491 0h-30l-37 -62q-23 -36 -49 -52q-11 -7 -42 -19t-42 -12q3 0 -37 20l-24 -28q-11 -10 -36 -10q-11 0 -29 15q-12 12 -25 23q-37 -30 -35 -30q-6 0 -31 10q-79 28 -79 110q0 60 47 135q44 71 98 108h11q2 -2 2 -7q0 -6 -23 -32q-29 -33 -42 -56q-23 -38 -23 -76
q0 -51 53 -78q42 -21 98 -21q69 0 164 29q-26 34 -77 41l-90 8q4 15 59 94h219v-110zM335 -198q0 -5 -26 -31q-22 -21 -33 -30l-76 40l-41 -36q-14 1 -78 39q5 11 26 33l31 30q57 -40 68 -40q3 0 24 21t25 21z" />
    <glyph glyph-name="ellipsis" unicode="&#xf0c9;" horiz-adv-x="534" 
d="M516 322q0 -16 -14 -53q-18 -48 -20 -55q1 18 -15.5 37t-34.5 19q-28 0 -85 -35q-60 -37 -60 -62q0 -22 48 -28l90 -8q49 -8 49 -36q0 -10 -7 -32q-27 -87 -45 -106.5t-106 -52.5l-38 20q-51 -43 -54 -43q-9 0 -38 17q-24 14 -36 24q-12 -12 -36 -34h-7q-44 0 -72 40
q-24 36 -24 82q0 98 73 208q0 -4 1.5 -13t1.5 -14q0 -15 -14 -51t-14 -60q0 -92 156 -92q103 0 203 49l-6 4q-15 4 -40 3q-44 -2 -39 -2q-100 0 -100 58q0 79 72 168q76 94 152 94q59 0 59 -46zM367 -151q-32 -48 -65 -64l-82 42l-48 -46q-36 12 -83 49q30 37 63 64
q54 -41 75 -41q-1 0 53 43z" />
    <glyph glyph-name="nonbreakingspace" unicode="&#xf0ca;" horiz-adv-x="417" 
d="M265 420q-72 -76 -78 -76t-40.5 22t-45.5 31q6 9 38.5 42.5t37.5 33.5q6 0 88 -53zM441 0h-458v110h22q214 144 300 144q40 0 75.5 -33.5t35.5 -73.5q0 -7 -10 -37h35v-110zM321 111q-12 24 -38.5 39.5t-54.5 15.5q-30 0 -72 -20l-67 -35h232z" />
    <glyph glyph-name="Agrave" unicode="&#xf0cb;" horiz-adv-x="1000" 
 />
    <glyph glyph-name="Atilde" unicode="&#xf0cc;" horiz-adv-x="608" 
d="M591 156q0 -54 -34 -156h-261q-6 -5 -13 -24.5t-18 -21.5l-190 108q-5 -4 -17 -36q-9 -26 -30 -26h-48v110h85q4 0 18 29q17 35 24 43q20 25 66 47.5t75 22.5q25 0 28 -12q0 -12 5 -42q2 -9 25 -46q27 -42 38 -42h171q-12 63 -62 116l59 103q79 -83 79 -173zM493 -139
q-9 -16 -39 -49t-36 -33q-5 0 -49 26t-48 34q44 53 77 75zM220 110v13q0 34 -30 34q-18 0 -36 -12q39 -24 66 -35z" />
    <glyph glyph-name="Otilde" unicode="&#xf0cd;" horiz-adv-x="697" 
d="M679 154q0 -59 -34 -154h-237q-12 9 -20 16q-26 -30 -50 -62l-123 57q-79 38 -107 75l35 69h-3q-16 0 -43 -13q-30 -14 -29 -28l24 -202q1 -5 -49 -135l-43 286q-4 27 27 82q27 50 51.5 72.5t109.5 47.5q79 23 116 23l23 -100q22 -78 47 -78h228q1 1 1 4q0 20 -22.5 60
t-39.5 51l59 104q32 -20 55.5 -76.5t23.5 -98.5zM577 -153q0 -16 -79 -62q-9 2 -43 29t-34 34q0 8 34 37q31 28 43 35q79 -61 79 -73zM278 100q-9 22 -18 76h-6q-12 0 -57 -27q14 -13 39 -27z" />
    <glyph glyph-name="OE" unicode="&#xf0ce;" horiz-adv-x="841" 
d="M734 434q-5 -10 -31 -38.5t-33 -28.5q-8 0 -85 44q-16 -14 -44 -44q-47 18 -90 47q30 36 63 67q60 -42 78 -42q4 0 26 19.5t28 22.5zM814 158q0 -82 -24 -158h-330l-12 80h-108q-23 0 -90 -40t-96 -40h-173v110q128 0 166 3q90 6 132 30q-89 43 -137 43q-29 0 -72 -28h-7
q-2 3 -2 8q0 33 46 79.5t88 46.5q45 0 75 -16q153 -84 291 -84l-26 -80h209l-28 58q-18 31 -36 53l59 100q75 -98 75 -165zM343 -99q-38 -57 -76 -81q-96 49 -96 59q0 7 33.5 40t42.5 35z" />
    <glyph glyph-name="oe" unicode="&#xf0cf;" horiz-adv-x="675" 
d="M646 432l-32 -38q-26 -29 -33 -29q-9 0 -86 44q-40 -42 -47 -42q-16 0 -86 45q21 26 63 67q20 -12 39 -25q29 -17 39 -17q3 0 52 44zM650 158q0 -36 -11 -80l-21 -78h-303q-31 0 -54 25t-23 56q0 11 7 31.5t7 28.5q-1 1 -4 1q-54 0 -115.5 -58t-61.5 -112q0 -99 151 -128
q64 -13 220 -13q-64 -88 -207 -88q-93 0 -151 38q-69 44 -69 132q0 143 128 258q-12 8 -37 8q-45 0 -59 -6q-9 -4 -48 -33v11q0 35 30 84q33 57 66 51q196 -30 255 -30q27 0 52 2l-43 -100q-25 -1 -62 -6q-5 -5 -5 -13q0 -12 13.5 -21.5t25.5 -9.5h244q-12 63 -63 116
l59 105q79 -86 79 -171zM254 -26q0 -9 -23 -37q-20 -23 -32 -33q-13 8 -38 27q-30 24 -30 30q0 9 22.5 36t32.5 27q8 0 38 -21t30 -29z" />
    <glyph glyph-name="endash" unicode="&#xf0d0;" horiz-adv-x="826" 
d="M723 432l-32 -37q-27 -30 -32 -30t-41.5 20.5t-43.5 21.5q-43 -40 -49 -40q-23 0 -85 45q15 22 63 67q59 -42 77 -42q6 0 54 44zM799 147q0 -23 -7 -75q-8 -56 -15 -72h-330q-8 47 -10 74q-43 4 -79 4q-52 0 -117 -39t-82 -39h-189v110q142 0 168 2q65 5 128 29l-1 3
q-34 12 -67 25q-42 15 -68 15q-28 0 -73 -28h-7q-2 0 -2 6q0 20 39 70.5t58 50.5q17 7 39 7q37 0 91 -24l87 -41q36 -14 94 -25t94 -10q-17 -44 -28 -80h209q-21 59 -62 112l57 99q73 -80 73 -174z" />
    <glyph glyph-name="emdash" unicode="&#xf0d1;" horiz-adv-x="665" 
d="M641 432q-51 -67 -64 -67q-3 0 -41.5 20.5t-43.5 21.5q-43 -40 -48 -40q-23 0 -87 47l63 65q67 -42 78 -42q3 0 54 44zM645 154q0 -43 -32 -154h-303q-30 0 -54 25.5t-24 55.5q0 6 15 63q-19 -4 -55 -16q-48 -24 -84 -63q-42 -47 -42 -92q0 -101 151 -130q60 -12 222 -12
q-64 -88 -210 -88q-94 0 -150 38q-67 45 -67 135q0 71 35 141.5t91 113.5q-12 7 -64 7q-29 0 -45.5 -12l-34.5 -26v7q0 37 27 86q31 54 64 54l5 -1q15 -1 132 -18q79 -12 132 -12q23 0 45 2l-45 -99q-21 -2 -64 -9q-1 -5 -1 -10q0 -13 11.5 -22.5t25.5 -9.5h242q1 1 1 4
q0 22 -22 60q-21 35 -40 51l59 106q79 -80 79 -175z" />
    <glyph glyph-name="quotedblleft" unicode="&#xf0d2;" horiz-adv-x="599" 
d="M551 432l-32 -38q-26 -29 -32 -29q-10 0 -87 44q-41 -42 -47 -42q-11 0 -42.5 18t-43.5 29l65 65q59 -42 76 -42l53 44zM587 154q0 -64 -34 -154h-257q-7 0 -15 -23.5t-20 -24.5l-188 108q-8 -2 -17.5 -31t-28.5 -29h-51v110h85q3 0 20 31q19 36 20 37q17 25 64 48.5
t78 23.5q24 0 28 -8q2 -19 8 -50q4 -15 27 -47q25 -35 36 -35h169q-9 58 -62 114l59 105q79 -89 79 -175zM216 108v13q0 33 -27 33q-28 0 -37 -11q42 -26 64 -35z" />
    <glyph glyph-name="quotedblright" unicode="&#xf0d3;" horiz-adv-x="725" 
d="M641 432q-50 -67 -64 -67q-8 0 -85 44q-49 -42 -48 -42q-19 0 -85 45q28 38 63 67q63 -42 76 -42q10 0 54 44zM695 152q0 -58 -34 -152h-241l-16 14q-12 -11 -25 -28.5l-25 -33.5l-127 60q-102 52 -103 72l33 69q-1 1 -4 1q-15 0 -41 -14q-29 -16 -28 -30l24 -200
q2 -18 -51 -135l-41 286q-3 24 24 76q23 45 46 71.5t109 51.5q61 19 123 28q39 -180 72 -180h228q2 0 1 3q0 21 -22 61q-22 37 -40 52l59 105q79 -94 79 -177zM293 102q-10 26 -17 72h-8q-9 0 -55 -27q12 -11 38 -27q30 -18 42 -18z" />
    <glyph glyph-name="quoteleft" unicode="&#xf0d4;" horiz-adv-x="612" 
d="M659 104l-46 -104h-589v45q0 27 22 68q28 56 90 76q25 9 103 17q55 6 67 25l1 11q2 38 -23 76l-30 -66q-19 -34 -62 -34q-32 0 -53 19t-21 50q0 46 46 123q48 83 90 83q45 -17 76 -74q29 -53 29 -106q0 -54 -32 -110q-35 -61 -83 -74q-7 -2 -47 -2q-94 0 -121 -23h583z
M141 469q-2 -16 -66 -52q-8 1 -36.5 22.5t-28.5 28.5q0 6 29 33.5t35 27.5q8 0 67 -60zM477 -97q-48 -72 -67 -72q-3 0 -44.5 23.5t-44.5 23.5q-7 0 -47 -47q-44 15 -93 51q32 38 67 70q61 -46 81 -46q3 0 27 21q14 14 29 27zM265 341q0 12 -21.5 30t-33.5 18
q-9 0 -25 -10.5t-16 -18.5q0 -13 29 -26q25 -12 41 -12q6 0 16 7t10 12z" />
    <glyph glyph-name="quoteright" unicode="&#xf0d5;" horiz-adv-x="542" 
d="M495 408q1 -4 1.5 -13.5t0.5 -14.5q0 -16 -14 -37l-24 -33q-16 4 -28 8q-17 -74 -64 -125q36 -71 36 -114q0 -25 -8 -79h-262q12 36 40 107q40 14 63 26q47 22 49 40q-8 13 -36 42q-31 33 -40 33q-3 0 -12.5 -13.5t-13.5 -14.5q-44 23 -128 71q-34 22 -34 58q0 39 42 115
h3q48 1 151 -92q88 -81 125 -138q25 36 25 86q0 19 -12 42t-12 20q0 14 72 107q-1 -5 -1 -9q0 -24 31 -44zM341 96q-7 15 -25 42q-14 -15 -45 -40q26 -2 58 -2h12z" />
    <glyph glyph-name="divide" unicode="&#xf0d6;" horiz-adv-x="748" 
d="M725 370l-78 -97v-14l12 -123q0 -17 -28 -98.5t-37 -91.5q-17 -16 -95 -37q-74 -19 -104 -19q-71 0 -71 69q0 32 25 102q-12 3 -25 3q-48 0 -113.5 -32t-75.5 -32h-155v110h186q18 0 56 13q-81 51 -122 51q-38 0 -73 -24q21 47 53 83q41 45 82 45q38 0 163 -61
q133 -64 202 -73l-69 -92q-6 1 -32 5q-20 3 -31 3q-7 0 -7 -7l1 -3q-1 -36 46 -36q24 0 83.5 16t74.5 29v6q0 56 -13 137l-24 137q-28 18 -31 30l33 64q27 45 44 52q1 -17 9 -45q16 -21 114 -70zM298 -141q-9 -16 -36 -41q-30 -29 -42 -29q-9 0 -43 24q-30 21 -41 31
q63 74 80 74q5 0 41 -26.5t41 -32.5z" />
    <glyph glyph-name="lozenge" unicode="&#xf0d7;" horiz-adv-x="743" 
d="M720 370q-4 -8 -44 -54q-35 -43 -35 -50l12 -129q1 -8 -6 -36q-32 -120 -57 -153q-13 -17 -94 -39q-75 -19 -106 -19q-71 0 -71 68q0 22 8 52l16 50q-12 4 -23 4q-48 0 -114 -32t-77 -32h-155v110h185q32 0 60 13q-82 51 -125 51q-34 0 -71 -24l-2 3q62 125 136 125
q41 0 90 -24l83 -45q111 -55 191 -65l-67 -91l-4 -1l-64 8q-1 -3 -1 -7q0 -39 45 -39q65 0 157 43v6q1 43 -12 140t-24 136q-15 11 -32 30q54 109 78 116q0 -15 9 -43q16 -23 114 -72z" />
    <glyph glyph-name="ydieresis" unicode="&#xf0d8;" horiz-adv-x="745" 
d="M257 404q0 -10 -34 -39.5t-43 -29.5q-7 0 -45 25t-38 31q0 7 35.5 39.5t42.5 32.5q6 0 44 -27.5t38 -31.5zM726 370q-79 -95 -79 -103q0 -5 11 -128q1 -11 -5 -34q-29 -118 -58 -158q-12 -17 -94 -38q-76 -19 -106 -19q-38 0 -54 15.5t-16 53.5q0 35 24 102q-10 3 -25 3
q-49 0 -112 -32t-76 -32h-157v108q144 0 173.5 2.5t38.5 3.5q20 3 32 9q-83 51 -115 51q-36 0 -64 -15l-16 -9q11 41 53.5 84.5t80.5 43.5q39 0 162 -59q133 -64 202 -75q-65 -93 -71 -92l-64 8q-2 -2 -2 -6q0 -40 46 -40q71 0 159 45v4q0 44 -13 141t-24 133l-33 30l34 64
q24 42 45 54q0 -17 9 -45q8 -10 54 -37q42 -26 60 -33z" />
    <glyph glyph-name="Ydieresis" unicode="&#xf0d9;" horiz-adv-x="267" 
d="M250 52q0 -40 -39 -102q-11 13 -37 37q-17 13 -69 13h-125v110h101q3 4 3 17q0 21 -13 108t-20 102q-2 4 -16.5 15t-14.5 16q0 11 32.5 61t45.5 56l-1 -11q-1 -20 9 -34q8 -10 54 -37q41 -25 60 -33l-44 -54q-34 -43 -34 -52q0 -77 13 -129q3 -13 49 -35t46 -48z" />
    <glyph glyph-name="fraction" unicode="&#xf0da;" horiz-adv-x="692" 
d="M676 370l-78 -102l12 -133q2 -14 -9 -64t-17.5 -60.5t-45.5 -10.5h-147l-36 -48l-121 56q-74 35 -107 76l33 69q-1 1 -5 1q-12 0 -40 -13q-31 -15 -30 -25l26 -207q2 -17 -51 -132l-43 286q-3 22 28 77l23 42.5t30 34.5q57 43 223 71q8 -39 15 -77q10 -45 28 -73t29 -28
h146q3 5 3 11q0 25 -13.5 111.5t-21.5 104.5q-14 11 -31 31q41 86 71 117q4 -1 8 -20q5 -22 9 -27q10 -11 53 -37q38 -22 59 -31zM295 104q-4 13 -18 72q-27 -8 -59 -25l-2 -6q27 -17 79 -41z" />
    <glyph glyph-name="currency" unicode="&#xf0db;" horiz-adv-x="788" 
d="M749 370l-43 -54q-34 -42 -34 -50q0 -4 11 -130q2 -24 -11 -76q-15 -60 -33 -60h-151q-31 -58 -35 -65q-23 -37 -47 -55q-29 -20 -101 -36q-65 -14 -108 -14q-170 0 -170 136q0 47 54.5 134.5t95.5 93.5q3 -4 3 -9q0 -6 -23 -32q-28 -32 -41 -55q-22 -38 -22 -74
q0 -47 55 -75q44 -21 98 -21q51 0 156 28v-1q1 0 1 4q-26 31 -73 40q-13 3 -87 7v7q10 24 58 97h309q4 6 4 14q0 24 -13.5 110.5t-21.5 104.5q-2 4 -16.5 13.5t-15.5 15.5q41 85 71 117l7 -3q1 -10 2 -21.5t7 -18.5q27 -31 114 -72z" />
    <glyph glyph-name="guilsinglleft" unicode="&#xf0dc;" horiz-adv-x="758" 
d="M741 370q-3 -6 -44 -55q-35 -41 -34 -52l12 -127q1 -13 -9.5 -60.5t-17.5 -65.5q-12 -10 -23 -10h-139l-36 -64q-22 -35 -52 -54q-11 -6 -41 -17t-41 -11q-4 0 -37 18q-29 -37 -48 -37l-20 1q-16 8 -50 38q-26 -32 -32 -32q-41 0 -76 34.5t-35 77.5q0 91 71 179
q60 76 83 73q2 -3 2 -8q0 -6 -23 -33q-29 -34 -42 -57q-23 -39 -23 -76q0 -49 55 -76q45 -22 98 -22q65 0 160 28l4 3q-22 35 -76 43l-91 6q11 30 61 96h304l3 3q1 3 1 8q0 28 -12.5 111.5t-20.5 104.5l-33 30l35 65q27 47 41 53l3 -13v-4q0 -44 123 -98zM360 -199
q-34 -48 -59 -64l-76 42q-14 -11 -44 -38q-17 2 -79 41l57 62q60 -39 70 -39q4 0 25 18q14 11 27 23z" />
    <glyph glyph-name="guilsinglright" unicode="&#xf0dd;" horiz-adv-x="928" 
d="M911 120q0 -16 -24.5 -59.5t-38.5 -50.5l-164 62q-8 -5 -25 -41q-15 -31 -26 -31h-173q-7 38 -11 73l-3 2q-15 3 -82 3q-46 0 -109 -39t-87 -39h-185v110q139 0 171 3q73 6 128 32q-113 43 -137 43q-23 0 -42 -10l-37 -20q-5 2 -5 13q57 121 134 121q41 0 98 -26
q86 -41 94 -43q84 -29 177 -31q-17 -32 -28 -81l107 -1q7 10 13 27q17 58 77.5 110t117.5 50l7 -1l8 -8q13 -43 27 -85q18 -58 18 -83zM344 -99q-13 -35 -65 -75h-14q-14 -1 -49 19q-31 18 -45 32q12 16 36 42q30 31 42 33zM810 148q-12 50 -25 50q-24 0 -47 -19z" />
    <glyph glyph-name="fi" unicode="&#xf0de;" horiz-adv-x="921" 
d="M894 121q0 -19 -24 -59q-21 -36 -38 -52l-165 62q-8 -5 -24 -38.5t-27 -33.5h-171q-7 37 -11 73q-7 5 -49 5q-58 0 -68 -1q-25 -2 -84 -39.5t-80 -37.5h-185v110h172q41 0 124 34v1q-110 43 -134 43q-37 0 -66 -25q-13 -5 -14 -5q-4 0 -4 11q19 49 51 82q39 41 83 41
q52 0 104 -29q119 -66 263 -71q-15 -32 -28 -81h106l44 85q24 39 71 67q57 35 85 33h16q8 -4 30.5 -81t22.5 -94zM793 148q-14 50 -26 50q-16 0 -46 -19z" />
    <glyph glyph-name="fl" unicode="&#xf0df;" horiz-adv-x="930" 
d="M908 120q0 -19 -23 -58q-20 -33 -38 -52l-165 62q-8 -5 -24 -38.5t-28 -33.5h-172q-8 47 -10 74q-21 4 -68 4q-43 0 -50 -1q-24 -2 -84 -39.5t-80 -37.5h-185v110h169q55 0 127 34v1q-104 43 -134 43q-21 0 -41 -10l-39 -20q-4 3 -4 8q0 4 13 32q45 94 121 94
q45 0 108 -30q81 -39 104 -45q79 -22 156 -25q-15 -33 -28 -82h109l28.5 63t40 57t61.5 46q42 23 72 20h12l5 -5q11 -20 29 -83q18 -66 18 -88zM217 404q0 -13 -75 -59q-71 50 -71 59q0 6 32 36.5t39 30.5q6 0 40.5 -31t34.5 -36zM808 148q-14 50 -26 50q-17 0 -46 -19z" />
    <glyph glyph-name="daggerdbl" unicode="&#xf0e0;" horiz-adv-x="728" 
d="M712 118q0 -14 -25 -57.5t-38 -50.5l-163 60q-9 0 -24.5 -35t-27.5 -35h-129q-6 0 -15 -22t-19 -24l-191 106q-3 -4 -17 -38q-10 -22 -27 -22h-55v110h89q4 0 19 30q17 36 27 46q24 24 63 45q43 21 73 21q27 0 29 -8q0 -13 3 -37q2 -14 27 -53q27 -44 42 -44h91
q20 34 35.5 73.5t76.5 77.5q56 35 88 35q18 0 21 -6q7 -16 26 -82q21 -73 21 -90zM612 148q-5 18 -21 48q-20 4 -51 -17zM225 110v21q0 25 -27 25q-20 0 -37 -10q33 -21 64 -36z" />
    <glyph glyph-name="periodcentered" unicode="&#xf0e1;" horiz-adv-x="799" 
d="M775 119q0 -18 -24 -57q-20 -32 -38 -52l-162 60q-8 3 -24.5 -33.5t-27.5 -36.5h-82q-4 0 -16 14q-20 -20 -52 -60l-123 56q-82 39 -105 74l33 71q-1 1 -4 1q-15 0 -42.5 -15t-26.5 -29l24 -201q2 -11 -51 -132l-43 289q39 125 109 168q44 26 195 54q38 -180 72 -180h122
l34 74q18 36 71.5 74t91.5 38q18 0 22 -6l27 -87q20 -62 20 -84zM674 146q-2 4 -6 26q-3 15 -12 24l-7 1q-18 0 -45 -18q24 -10 70 -33zM289 102q-16 39 -16 76q-32 -10 -64 -27q13 -15 80 -49z" />
    <glyph glyph-name="quotesinglbase" unicode="&#xf0e2;" horiz-adv-x="841" 
d="M741 419q-16 -24 -65 -76l-99 46q34 41 76 78zM797 149q0 -23 -7 -76q-8 -57 -15 -73h-332l-10 78h-116q-19 0 -82 -39t-82 -39h-187v110h163q69 0 133 33q-9 7 -65.5 26t-67.5 19q-20 0 -40.5 -10l-39.5 -20q-5 2 -5 7q0 35 47 81t87 46t91 -22l85 -41q68 -28 192 -37
q-16 -42 -28 -82h209q-19 59 -62 114l57 98q75 -78 75 -173zM326 -99q-2 -9 -35.5 -45.5t-39.5 -36.5q-7 0 -51 28t-44 33q0 8 32.5 38.5t43.5 35.5z" />
    <glyph glyph-name="quotedblbase" unicode="&#xf0e3;" horiz-adv-x="682" 
d="M569 407q0 -9 -55 -68q-75 48 -75 54q0 7 25 37.5t32 30.5q9 0 41 -23t32 -31zM667 156q0 -35 -10 -79l-22 -77h-301q-31 0 -55 24.5t-24 55.5q0 9 7 35.5t6 28.5q-58 -9 -116 -60q-64 -55 -64 -110q0 -101 150 -131q61 -12 223 -12q-63 -88 -210 -88q-94 0 -151 39
q-66 44 -66 134q0 136 126 255q-23 9 -68 9q-22 0 -76 -40v9q0 38 28 86q31 55 65 52l7 -1q32 -2 131 -17q83 -13 133 -13q21 0 41 2l-45 -99q-24 -2 -62 -7q-3 -3 -3 -12q0 -30 41 -30l239 -1v3q0 20 -22.5 61t-39.5 51l59 105q79 -87 79 -173zM271 -27q0 -18 -55 -69
q-66 45 -66 57q0 10 21 36.5t32 26.5q10 0 39 -20.5t29 -30.5z" />
    <glyph glyph-name="perthousand" unicode="&#xf0e4;" horiz-adv-x="607" 
d="M475 404q0 -17 -74 -59q-8 0 -40 25.5t-32 32.5q0 8 30.5 37t39.5 31q76 -59 76 -67zM588 153q0 -37 -33 -153h-259q-6 0 -15 -22.5t-18 -25.5l-191 108q-7 -4 -16 -35q-8 -25 -29 -25h-50v110h84q3 0 22.5 34.5t23.5 39.5q27 27 67.5 47t76.5 20q16 0 21 -9q1 -13 3 -35
q3 -18 29 -56q26 -41 40 -41h166q1 0 1 3q0 20 -22.5 59t-39.5 53l61 104q78 -90 78 -176zM217 110v19q0 24 -27 25q-20 1 -37 -10q22 -15 31 -20q21 -12 33 -14z" />
    <glyph glyph-name="Acircumflex" unicode="&#xf0e5;" horiz-adv-x="714" 
d="M602 420q-6 -12 -35.5 -35.5t-40.5 -23.5q-7 0 -40 25.5t-33 31.5q0 7 32.5 38t40.5 31q9 0 76 -67zM696 154q0 -56 -35 -154h-241q-5 5 -16 14q-11 -9 -50 -62q-1 1 -122 58q-81 38 -107 72l32 71q0 1 -3 1q-15 0 -37.5 -12t-31.5 -23q-1 -8 0 -10l24 -199
q-9 -35 -52 -133l-42 289q31 123 108 167q42 24 196 55q21 -144 72 -178h229q-15 63 -62 115l59 104q79 -80 79 -175zM293 102q-18 50 -16 74q-45 -14 -64 -29q31 -30 80 -45z" />
    <glyph glyph-name="Ecircumflex" unicode="&#xf0e6;" horiz-adv-x="761" 
d="M688 418q-20 -27 -67 -77q-64 33 -99 46q25 28 77 80q28 -19 89 -49zM742 146q0 -44 -20 -146h-239q-44 -83 -76 -110q-10 -8 -46 -22t-48 -14q-4 0 -36 18q-28 -37 -49 -37q-26 0 -68 39l-34 -32q-111 21 -111 122q0 60 49 136q45 70 100 106h7q2 -3 2 -8q0 -6 -23 -33
q-29 -34 -42 -56q-23 -39 -23 -76q0 -49 54 -77q43 -22 98 -22q60 0 161 28v-1q2 0 1 4q0 13 -29 28q-25 13 -66 16q-66 5 -69 5q7 18 59 96h380q-35 77 -64 113l57 97q38 -47 54 -80q21 -44 21 -94zM359 -199q-18 -24 -60 -64l-77 42l-43 -38q-50 21 -78 41q32 43 59 62
q49 -39 68 -39q3 0 24 19l26 22z" />
    <glyph glyph-name="Aacute" unicode="&#xf0e7;" horiz-adv-x="601" 
d="M582 153q0 -57 -32 -153h-259q-6 0 -14.5 -22.5t-19.5 -25.5l-191 106q-1 -2 -17 -37q-9 -21 -27 -21h-51v110h85q4 0 20 30q17 35 26 44q27 26 66.5 46t70.5 20q23 0 28 -8q1 -11 3 -35q3 -19 29.5 -58t39.5 -39h166h0.5t0.5 1v2q0 17 -22 59t-40 53l61 104
q77 -90 77 -176zM498 -141l-30 -40q-22 -28 -28 -28q-10 0 -77 47l-40 -44q-42 14 -81 46l57 68q59 -44 71 -44q1 0 47 46zM211 110v19q1 25 -27 25q-19 0 -37 -10q30 -19 34 -21q21 -12 30 -13z" />
    <glyph glyph-name="Edieresis" unicode="&#xf0e8;" horiz-adv-x="744" 
d="M710 154q0 -56 -34 -154h-241q-6 4 -16 14q-12 -9 -50 -62l-123 55q-74 35 -107 75l33 71q-1 1 -4 1q-15 0 -41 -14q-29 -16 -28 -30l24 -200q-8 -36 -51 -133l-43 287q28 122 108 168q44 25 196 56q33 -178 72 -178h230q-11 59 -63 115l59 103q35 -31 57 -79.5t22 -94.5
zM642 -139q-3 -9 -26.5 -39.5t-29.5 -30.5q-3 0 -37.5 22t-39.5 23l-42 -43q-30 15 -41 21q-22 13 -38 26q13 19 57 68q30 -27 70 -44l48 46zM307 102q-15 41 -16 74q-44 -14 -63 -29q33 -31 79 -45z" />
    <glyph glyph-name="Egrave" unicode="&#xf0e9;" horiz-adv-x="662" 
d="M582 -166q0 -19 -78 -61q-10 1 -43.5 27t-33.5 34q0 7 35 39.5t42 32.5q4 0 41 -34.5t37 -37.5zM674 0h-85q-19 0 -38 22q-16 19 -22 40l-36 -62h-178q-11 0 -35 12l-2 -2q-20 -56 -64 -111q-53 -67 -100 -67q-33 0 -112 36.5t-97 61.5v16h6q-4 0 31 -20t66 -20
q10 0 58 12q26 7 89.5 59.5t63.5 74.5q0 13 -25 46l-35 44l57 94q15 -10 36 -46q25 -42 38 -55q25 -27 57 -27h169q5 14 4.5 43.5t5.5 44.5q9 19 31 44l38 40q3 -10 3 -23q0 -17 -5 -52t-5 -53q0 -42 86 -42v-110z" />
    <glyph glyph-name="Iacute" unicode="&#xf0ea;" horiz-adv-x="669" 
d="M283 372q-4 -12 -31 -43.5t-36 -32.5q-87 45 -87 54q0 5 31 37t37 32q3 0 41 -22q44 -24 45 -25zM688 0h-77q-27 0 -38 39q-10 52 -33 155l-2 -1q-21 -67 -103 -86l-7 -2q-2 -121 -66 -184t-184 -63q-155 0 -155 139q0 36 33 127q36 100 63 100q2 0 2 -5q0 -10 -21 -64.5
t-21 -82.5q0 -100 128 -100q43 0 98 14q73 19 73 49q0 21 -25 77l-36 78l54 102q23 -44 29 -51q20 -25 51 -25q39 0 72 43l50 73q12 -68 39 -203q5 -19 12 -19h64v-110zM576 -115q-5 -10 -33.5 -42t-34.5 -32q-10 0 -86 49v6q0 7 29.5 35t38.5 31z" />
    <glyph glyph-name="Icircumflex" unicode="&#xf0eb;" horiz-adv-x="644" 
d="M634 416q-39 -53 -63 -67l-85 44q-21 -21 -46 -42q-42 15 -88 47q21 23 65 67q59 -44 77 -44q3 0 26.5 22t26.5 22q6 0 46 -23t41 -26zM660 0h-75q-23 0 -39 22l-21 40q-23 -36 -35 -62h-181q-12 0 -32 12l-66 -112q-47 -68 -101 -68q-39 0 -109.5 34t-98.5 64
q-3 10 -3 11q0 5 9 5q61 -40 96 -40q30 0 61.5 14t86.5 58q63 51 63 73q0 12 -60 91l57 94l54 -79q36 -49 77 -49h168q6 11 6 51q0 37 24 68l51 53v-65q0 -10 -4 -31.5t-4 -31.5q0 -29 27 -37q14 -5 49 -5v-110z" />
    <glyph glyph-name="Idieresis" unicode="&#xf0ec;" horiz-adv-x="643" 
d="M584 434q-26 -43 -57 -69l-78 46q-6 -8 -19 -21.5t-19 -20.5q-29 4 -81 45q24 33 55 67q23 -17 72 -44l48 46zM269 370q-9 -15 -33 -41q-28 -33 -36 -33q-5 0 -42.5 23.5t-44.5 29.5q41 55 69 70zM672 0h-77q-25 0 -36 34l-12 55q-7 36 -22 107q-14 -35 -44 -60
q-33 -29 -68 -28q-1 -250 -250 -250q-154 0 -154 139q0 45 29 126q32 90 64 101q3 -1 3 -6t-21 -62.5t-21 -79.5q0 -104 128 -104q45 0 99 14q72 19 72 50q0 26 -24 77l-36 77l53 102l29 -52q18 -22 52 -22q40 0 72 41l49 73q1 -4 42 -207q11 -15 28 -15h45v-110z" />
    <glyph glyph-name="Igrave" unicode="&#xf0ed;" horiz-adv-x="667" 
d="M564 442q0 -11 -52 -41q-10 1 -56 40q1 12 52 50q56 -44 56 -49zM632 368q-24 -40 -52 -64l-69 41q-21 -20 -36 -38q-33 7 -73 42q24 33 51 60q53 -37 64 -38l44 40zM684 0h-74q-18 0 -37.5 21t-21.5 40l-2 3l-35 -64h-179q-10 0 -34 12l-3 -2q-19 -55 -63 -111
q-54 -67 -100 -67q-35 0 -121 40q-92 44 -89 74h7q44 -40 96 -40q29 0 68 16q28 12 83 58q61 51 61 73q0 15 -25 46l-36 43l57 94l53 -74q37 -52 66 -52h182q8 15 8 78q0 10 70 92q3 -10 3 -23q0 -17 -5 -52.5t-5 -53.5q0 -28 27 -36q14 -5 49 -5v-110z" />
    <glyph glyph-name="Oacute" unicode="&#xf0ee;" horiz-adv-x="540" 
d="M562 110v-110h-119l-6 94q-3 56 -16 92q-11 -36 -39 -107q-65 -133 -328 -131h-36v9l165 78q125 62 125 94q0 10 -25 68q-14 33 -68 89q-5 -5 -14 -30l-61 35q-45 26 -54 38q-3 4 -3 19q0 65 23 141q72 -28 147 -110q80 -87 85 -158q3 -38 3 -131q14 13 15 38q2 32 5 38
t10 16q28 39 36 99q4 30 4 105q0 26 16 53.5t38 43.5q4 -29 10 -87q5 -69 9 -139q5 -85 19 -136q3 -11 18 -11h41z" />
    <glyph glyph-name="Ocircumflex" unicode="&#xf0ef;" horiz-adv-x="652" 
d="M606 404q-2 -9 -28 -39l-34 -38l-102 46l76 78q29 -19 88 -47zM670 0h-74q-23 0 -39 23l-22 41l-35 -64h-179q-10 0 -34 12q-62 -109 -66 -114q-49 -66 -104 -66q-33 0 -117 40q-90 43 -91 68l2 6h7q60 -40 96 -40q49 0 130.5 56.5t81.5 90.5q0 14 -25 46q-18 21 -35 43
l57 94q13 -13 48 -68q23 -38 70 -58h182q8 14 8 78q0 14 73 92v-43q0 -14 -5 -43t-5 -43q0 -41 76 -41v-110z" />
    <glyph glyph-name="apple" unicode="&#xf0f0;" horiz-adv-x="656" 
d="M558 450q-10 -15 -33 -41q-29 -32 -36 -32q-5 0 -42.5 23t-44.5 30q41 54 69 69zM270 370q-11 -15 -34 -41q-28 -33 -36 -33q-5 0 -42.5 23.5t-44.5 29.5q36 53 69 70zM672 0h-77q-26 0 -48 85l-22 111q-24 -70 -106 -89l-7 -2q2 -8 2 -13q0 -48 -20 -98
q-54 -136 -231 -136q-154 0 -154 139q0 45 29 126q32 90 64 101q3 -1 3 -6q0 -4 -21 -62t-21 -80q0 -104 129 -104q45 0 98 14q72 19 72 50q0 24 -25 77l-35 77l53 102l30 -52q17 -22 52 -22q39 0 72 41l48 73q10 -66 38 -193q8 -29 33 -29h44v-110z" />
    <glyph glyph-name="Ograve" unicode="&#xf0f1;" horiz-adv-x="575" 
d="M566 -107q-6 -12 -26 -39q-24 -30 -30 -30t-77 46q-15 -15 -40 -44q-49 19 -81 49l57 65q58 -42 70 -42q3 0 24 20l24 24zM594 0h-74q-18 0 -37.5 21.5t-21.5 39.5l-2 3l-35 -64q-14 0 -52 -1.5t-60 -1.5q-70 0 -101 15l-3 -2q-19 -55 -63 -111q-54 -67 -100 -67
q-35 0 -120 40q-93 44 -90 74h7q43 -40 97 -40q47 0 129 57t82 90q0 15 -25 46l-36 43l57 94q12 -7 33 -42q26 -41 41 -57q28 -29 59 -29h168q5 14 4.5 43.5t5.5 44.5q9 20 31 44l38 40q2 -10 2 -23q0 -17 -5 -52.5t-5 -53.5q0 -28 27 -37q14 -4 49 -4v-110z" />
    <glyph glyph-name="Uacute" unicode="&#xf0f2;" horiz-adv-x="658" 
d="M278 370q-4 -9 -33.5 -41t-35.5 -33q-84 45 -85 55q30 43 67 68zM676 0h-76q-24 0 -33 23q-12 31 -22 85q-13 77 -16 88q-12 -32 -42 -59q-34 -29 -66 -30l-4 -2v-9q3 -114 -65.5 -176t-183.5 -62q-157 0 -157 140q0 47 30 124q32 84 66 102l3 -5q-43 -111 -43 -144
q0 -103 128 -103q42 0 98 14q73 20 73 48q0 23 -24 78l-36 78l53 102l26 -47q17 -27 45 -27q50 0 80 38l52 76q8 -52 17 -104q11 -62 24 -103q5 -15 13 -15h60v-110zM621 -101q-26 -43 -57 -69l-79 46q-10 -12 -21 -23q-17 -19 -20 -19q-22 0 -78 44q24 33 57 70
q27 -25 69 -44l49 44z" />
    <glyph glyph-name="Ucircumflex" unicode="&#xf0f3;" horiz-adv-x="738" 
d="M269 -97q-7 -13 -32 -42q-27 -33 -35 -33q-5 0 -44.5 23.5t-42.5 29.5q7 11 34 39t35 28q-4 0 85 -45zM712 -26q0 -43 -38 -102l-45 44q-27 24 -57 24q-5 0 -75 -26t-109 -26q-68 0 -68 69q0 44 26 101q-29 4 -49 4q-35 0 -92 -31t-77 -31h-147v110h152q58 0 85 13
q-77 51 -124 51q-24 0 -40 -6l-34 -18q32 59 54 84q39 44 84 44q44 0 71 -15q179 -99 291 -119l-67 -92q-22 1 -66 6q-1 -3 -1 -8q0 -38 47 -38q27 0 71.5 12.5t69.5 26.5q1 36 -15 147.5t-26 140.5q-11 10 -29 24l1 9l33 61q24 40 42 52q0 -11 1 -22.5t8.5 -21.5t52.5 -38
q39 -23 60 -33l-78 -102l12 -131q2 -14 -16 -66l60 -38q32 -26 32 -59z" />
    <glyph glyph-name="Ugrave" unicode="&#xf0f4;" horiz-adv-x="732" 
d="M712 -26q0 -43 -38 -102l-45 44q-27 24 -57 24q-5 0 -75 -26t-109 -26q-68 0 -68 69q0 44 26 101q-29 4 -49 4q-35 0 -92 -31t-77 -31h-147v110h152q58 0 85 13q-77 51 -124 51q-24 0 -40 -6l-34 -18q32 59 54 84q39 44 84 44q44 0 71 -15q179 -99 291 -119l-67 -92
q-22 1 -66 6q-1 -3 -1 -8q0 -38 47 -38q27 0 71.5 12.5t69.5 26.5q1 36 -15 147.5t-26 140.5q-11 10 -29 24l1 9l33 61q24 40 42 52q0 -11 1 -22.5t8.5 -21.5t52.5 -38q39 -23 60 -33l-78 -102l12 -131q2 -14 -16 -66l60 -38q32 -26 32 -59z" />
    <glyph glyph-name="dotlessi" unicode="&#xf0f5;" horiz-adv-x="732" 
d="M234 400q-10 -14 -34 -33q-27 -22 -39 -22q-7 0 -37.5 24t-30.5 30q0 7 29.5 35t37.5 29q18 -8 74 -63zM712 -26q0 -43 -38 -102l-45 44q-27 24 -57 24q-5 0 -75 -26t-109 -26q-68 0 -68 69q0 44 26 101q-29 4 -49 4q-35 0 -92 -31t-77 -31h-147v110h152q58 0 85 13
q-77 51 -124 51q-24 0 -40 -6l-34 -18q32 59 54 84q39 44 84 44q44 0 71 -15q179 -99 291 -119l-67 -92q-22 1 -66 6q-1 -3 -1 -8q0 -38 47 -38q27 0 71.5 12.5t69.5 26.5q1 36 -15 147.5t-26 140.5q-11 10 -29 24l1 9l33 61q24 40 42 52q0 -11 1 -22.5t8.5 -21.5t52.5 -38
q39 -23 60 -33l-78 -102l12 -131q2 -14 -16 -66l60 -38q32 -26 32 -59z" />
    <glyph glyph-name="circumflex" unicode="&#xf0f6;" horiz-adv-x="882" 
d="M599 696q0 -17 -18 -54q-6 38 -31 109q11 25 23 42q26 -48 26 -97zM637 570q0 -41 -24 -41q-4 0 -12.5 4.5t-12.5 4.5q-23 -22 -48 -22q-30 0 -30 35q0 14 14 46l7 3q3 -7 2 -18q-2 -16 -2 -18q0 -17 19 -17q13 0 24 10q-7 13 -7 30q0 18 17 28v-5q0 -13 5 -28
q6 -20 17 -20h14q-1 4 -5 15.5t-4 14.5q0 5 12 21q14 -10 14 -43zM868 136q1 -8 -11 -61.5t-16 -58.5q-8 -9 -23 -16h-234q-12 0 -16 27l-4 37q-13 -21 -37 -64h-167q-30 0 -50 42l-23 66q-3 -3 -32 -45q-22 -33 -37 -30l-187 29q28 87 48.5 119t61.5 54l112 56q-9 27 -9 28
q0 10 62 98q13 -50 29 -140q17 -102 26 -142q6 -9 31 -18q22 -7 36 -7h137l-46 266v8q27 36 84 104q15 -24 27 -169q9 -94 17 -188q3 -21 18 -21h122q6 8 4 17l-44 251l1 7l39 50q25 31 45 42zM279 158l-16 81q-13 -15 -40 -41q-22 -9 -48 -28q65 -12 77 -12h27z" />
    <glyph glyph-name="tilde" unicode="&#xf0f7;" horiz-adv-x="924" 
d="M850 479q-2 -9 -11 -23q-11 -3 -31 -10l-79 -33q-48 -21 -72 -44q1 -2 20 -19q0 -3 -8 -22l-18 12t-9 21q0 32 87 74q66 31 121 44zM675 472q0 -27 -18 -27q-3 0 -9 2t-10 2q-3 0 -12 -5.5t-13 -5.5q-20 0 -20 25q0 8 5 23q4 -2 7 -15t11 -13q11 0 15 14q-1 5 0 8v12l9 8
q0 -14 10 -34v0q0 -2 5 -2q15 0 7 30l7 8q6 -21 6 -30zM396 348q0 -33 -8 -73l-7 -4l-16 188q-1 11 5 28.5t14 20.5q12 -58 12 -160zM275 483q0 -32 -19 -32q-3 0 -8.5 3.5t-8.5 3.5t-7 -4.5t-7 -4.5h-27q-7 21 -7 23q0 9 5 23h5v-3q0 -23 14 -23q7 0 15 10q1 6 -1 20l10 12
q6 -38 15 -38q10 0 11 8q-1 -8 -1 16q0 9 4 14q7 -14 7 -28zM872 -49q0 -39 -27 -87q-30 -54 -66 -54q-35 0 -93 33l10 4q12 -7 31 -7q45 0 70.5 14.5t50.5 53.5l-1 18q-18 -13 -30 -13q-32 0 -32 36q0 17 16 43t32 26q12 0 25.5 -26.5t13.5 -40.5zM866 303q0 -35 -56 -54
q-41 -14 -87 -14q-28 0 -34 -5l-17 -27q-3 7 -5 32q-9 5 -20 23q-16 -8 -49 -22q7 -47 13 -94q14 -66 45 -66q5 0 12 3q-11 33 -11 35q0 30 27.5 55t57.5 25q35 0 69 -38l-3 -14q-33 17 -67 17q-51 0 -51 -25q0 -21 26 -34q22 -11 45 -11q15 0 45 6.5t46 6.5q0 -38 -42 -46
q-13 -2 -58 -17q-37 -12 -59 -12q-53 0 -65 18l-27 50q-7 -18 -15 -36q-11 -19 -31 -19q-13 0 -27 11t-16 11q-120 -47 -259 -45q25 -108 180 -108q103 0 177 37q5 -27 22 -27q25 0 39 20t16 20q3 -10 7 -20.5t17 -11.5v-1h4q10 0 10 8q0 3 -4.5 8t-4.5 8q0 10 15 29
q14 -12 14 -35q0 -62 -49 -62q-4 0 -23 24l-26 -21.5t-29 -11.5q-17 0 -23 15.5t-7 15.5q-63 -35 -175 -35q-54 0 -97 14q-59 19 -71 59q-3 23 -11 54q-8 -3 -21 -17.5t-13 -22.5q18 -18 18 -37q0 -11 -10 -27q-10 -19 -20 -19q-4 0 -28.5 11t-28.5 11q-8 0 -20.5 -16
t-21.5 -18q-20 -5 -48 -5l-17 3q19 15 47 22q23 6 30 14q10 15 12 61q5 7 25 10q25 4 39 11q26 12 47 42l-62 24q-16 9 -40 63q-19 -23 -23 -26q-12 -11 -32 -11q-13 0 -42 14q-3 4 -3 10q0 26 37 47q29 13 57 27q3 14 4 17q4 8 14 10q1 -7 1 -45t24 -54l56 -24h5l1 11
q1 20 -8 56t-9 54q0 8 24 42l18 -172h60q84 0 163 18q14 4 55 28q4 0 16.5 -14t21.5 -14q25 0 25 41q0 21 -5 55q-6 43 -7 54q-4 5 -8 4q-10 -2 -9 -2q-27 0 -54.5 22.5t-34.5 49.5q-7 -14 -19 -40v-9q75 -16 75 -44q0 -39 -68 -67q-56 -22 -103 -22q-92 0 -92 78
q0 10 5.5 26.5t5.5 23.5q0 10 -25 30q-21 -40 -63 -40q-16 0 -25 13q-2 4 -12 27q-18 -20 -49 -20q-23 0 -33 11v4q-1 26 27 46q25 14 49 29q3 18 5 23q5 13 16 14q2 -27 3 -55q5 -39 26 -39q41 0 41 31q0 11 -6.5 34.5t-6.5 34.5q0 17 23 34l14 -82q13 -54 49 -54
q11 0 11 10q0 14 -9 42t-9 41q0 24 17 34l4 -5q1 -3 12 -56q6 -33 6 -56q0 -19 -10 -39q-12 -23 -29 -23q-7 0 -14 4q-4 -15 -4 -25q0 -27 32 -40q24 -10 55 -10q82 0 127 34q-11 10 -37 15q-31 5 -40 11v7q31 58 31 76q0 7 -12 181q0 9 19 47l14 -163q16 -87 100 -107
q2 9 2 44q-1 24 13 44q5 -39 8 -84v-1q0 -1 4 -1q25 0 50 26h10l1 -9q6 -17 21 -17q2 0 50 39.5t91 39.5q20 0 33 -13.5t13 -33.5zM545 -11l-23 -39l-35 22q-2 -1 -12 -12.5t-12 -11.5q-1 0 -39 25q9 11 25 34l35 -22l25 27q11 -8 36 -23zM547 -159q0 -1 -3 -15
q-5 -7 -11 -9q-4 -1 -10 0q-10 1 -13 1q-4 0 -13 -5.5t-12 -5.5q-5 0 -28 14q-4 0 -35.5 -14.5t-61.5 -14.5q-27 0 -37 5l3 7q4 3 64 3q3 0 31.5 14.5t37.5 14.5q5 0 30 -13q8 0 12 9q6 14 7 15h8v-2q0 -8 4 -13h8l16 22zM828 287q-15 24 -32 24q-25 0 -44 -13l-38 -26
q6 -3 15 -3q19 0 51 5q38 6 48 13zM837 -37q0 5 -6.5 10.5t-10.5 5.5q-11 0 -11 -12q0 -5 6 -11t10 -6q12 0 12 13zM145 307q0 17 -9 17q-6 0 -20.5 -9t-14.5 -14q0 -6 3 -5q12 -5 21 -5q20 0 20 16zM110 129v12q-39 -7 -44 -21q22 -12 31 -12q4 0 8.5 8.5t4.5 12.5z
M191 -84q-2 5 -7 9q-14 1 -38 12h-9v-8l19.5 -12t23.5 -6q9 0 11 5z" />
    <glyph glyph-name="macron" unicode="&#xf0f8;" horiz-adv-x="555" 
d="M477 84h-415v375h415v-375z" />
    <glyph glyph-name="breve" unicode="&#xf0f9;" horiz-adv-x="48" 
d="M70 0h-90v110h90v-110z" />
    <glyph glyph-name="dotaccent" unicode="&#xf0fa;" horiz-adv-x="553" 
d="M570 0h-67q-43 0 -65 64q-11 -16 -37 -64h-293q-44 0 -75.5 29t-31.5 72q0 46 19 104q23 74 58 73q3 0 3 -6q0 -2 -14 -35.5t-14 -53.5q0 -26 24 -48.5t51 -22.5h296q9 20 9 69q0 20 28 53l44 46v-46q0 -13 -4.5 -40t-4.5 -40q0 -20 14 -32t34 -12h26v-110zM381 -92
q-15 -22 -52 -59q-52 36 -63 36l-44 -38l-71 43q45 61 52 61q4 0 35 -19t34 -19q5 0 36 38q36 -13 73 -43zM327 -184q0 -11 -52 -50q-10 1 -56 47q3 9 23 25.5t28 16.5q6 0 31.5 -17t25.5 -22z" />
    <glyph glyph-name="ring" unicode="&#xf0fb;" horiz-adv-x="535" 
d="M522 176q0 -47 -20 -92q-12 -29 -45 -84h-361q-40 0 -67 35q-26 32 -26 72q0 39 24 97q27 67 57 74q3 -3 3 -9q0 -13 -11.5 -47t-11.5 -54q0 -16 27.5 -36t44.5 -20h312q1 1 1 4q0 12 -16 44l-24 44l55 99q58 -62 58 -127zM381 -92q-15 -22 -52 -59q-52 36 -63 36
l-44 -38l-71 43q45 61 52 61q4 0 35 -19t34 -19q5 0 36 38q36 -13 73 -43zM327 -184q0 -11 -52 -50q-10 1 -56 47q3 9 23 25.5t28 16.5q6 0 31.5 -17t25.5 -22z" />
    <glyph glyph-name="cedilla" unicode="&#xf0fc;" horiz-adv-x="582" 
d="M544 148l-67 -96q-144 10 -157 10q-36 0 -95 -31t-77 -31h-169v110h158q76 0 104 17l-59 31q-41 20 -61 20q-41 0 -78 -26v8q37 56 57 77q40 43 80 43q50 0 127 -41q98 -52 124 -60q37 -13 113 -31zM381 -92q-15 -22 -52 -59q-52 36 -63 36l-44 -38l-71 43q45 61 52 61
q4 0 35 -19t34 -19q5 0 36 38q36 -13 73 -43zM327 -184q0 -11 -52 -50q-10 1 -56 47q3 9 23 25.5t28 16.5q6 0 31.5 -17t25.5 -22z" />
    <glyph glyph-name="hungarumlaut" unicode="&#xf0fd;" horiz-adv-x="556" 
d="M573 0h-122l-12 78h-119q-11 -4 -85 -45q-61 -33 -82 -33h-181v110h207q32 10 94 33q-24 11 -70 26q-53 17 -69 17q-24 0 -46.5 -14t-35.5 -14v13q56 119 136 119q46 0 122 -36q85 -40 123.5 -47t119.5 -17q-10 -40 -26 -80q15 1 46 0v-110zM381 -92q-15 -22 -52 -59
q-52 36 -63 36l-44 -38l-71 43q45 61 52 61q4 0 35 -19t34 -19q5 0 36 38q36 -13 73 -43zM327 -184q0 -11 -52 -50q-10 1 -56 47q3 9 23 25.5t28 16.5q6 0 31.5 -17t25.5 -22z" />
    <glyph glyph-name="ogonek" unicode="&#xf0fe;" horiz-adv-x="416" 
d="M441 -167q-58 -90 -211 -90q-90 0 -148 39q-68 46 -68 132q0 70 36 142q34 68 90 115l-1 3q-27 7 -69 7q-18 0 -38 -15q-32 -23 -34 -24v7q0 13 11 45q17 48 30 64q22 28 62 28q27 0 79 -13t78 -13h142q-13 -37 -42 -99q-21 -2 -62 -5q-4 -7 -4 -13q0 -12 10 -22.5
t22 -10.5h110v-110h-110q-37 0 -62.5 24t-25.5 60q0 12 8 34.5t8 28.5q0 1 -4 1q-51 0 -114.5 -60.5t-63.5 -112.5q0 -143 304 -143q20 0 67 1zM278 -12q-12 -17 -42 -47q-21 14 -50 28l-35 -30l-57 34q24 33 42 49l55 -30q19 19 29 30q29 -10 58 -34zM235 -86q0 -8 -42 -39
q-17 10 -44 37q2 8 17 20t23 13q46 -24 46 -31z" />
    <glyph glyph-name="caron" unicode="&#xf0ff;" horiz-adv-x="417" 
d="M318 8q-12 -17 -42 -47q-21 14 -50 28l-35 -30l-57 34q24 33 42 49l55 -30q19 19 29 30q29 -10 58 -34zM447 -167q-14 -44 -91 -69q-60 -21 -118 -21q-90 0 -149 39q-69 46 -69 132q0 72 36 142q34 67 91 116q-12 8 -62 8q-33 0 -80 -40v9q0 41 27 87q31 50 69 50
q29 0 84.5 -13t78.5 -13h143q-16 -44 -44 -101q-105 -9 -163 -30q-41 -14 -81 -62q-42 -51 -42 -92q0 -143 305 -143q22 0 65 1zM275 -66q0 -8 -42 -39q-17 10 -44 37q2 8 17 20t23 13q46 -24 46 -31z" />
  </font>
</defs>
</svg>
